<mxfile host="app.diagrams.net" modified="2023-05-11T21:34:56.173Z" agent="Mozilla/5.0 (Windows NT 10.0; Win64; x64) AppleWebKit/537.36 (KHTML, like Gecko) Chrome/113.0.0.0 Safari/537.36" etag="iV9YAU2wnMzdxJkDDlGy" version="21.2.9" type="device" pages="3">
  <diagram id="C5RBs43oDa-KdzZeNtuy" name="Page-1">
    <mxGraphModel dx="2501" dy="796" grid="1" gridSize="10" guides="1" tooltips="1" connect="1" arrows="1" fold="1" page="1" pageScale="1" pageWidth="827" pageHeight="1169" math="0" shadow="0">
      <root>
        <mxCell id="WIyWlLk6GJQsqaUBKTNV-0" />
        <mxCell id="WIyWlLk6GJQsqaUBKTNV-1" parent="WIyWlLk6GJQsqaUBKTNV-0" />
        <mxCell id="zkfFHV4jXpPFQw0GAbJ--0" value="Booking" style="swimlane;fontStyle=3;align=center;verticalAlign=top;childLayout=stackLayout;horizontal=1;startSize=26;horizontalStack=0;resizeParent=1;resizeLast=0;collapsible=1;marginBottom=0;rounded=0;shadow=0;strokeWidth=1;" parent="WIyWlLk6GJQsqaUBKTNV-1" vertex="1">
          <mxGeometry x="-280" y="100" width="180" height="224" as="geometry">
            <mxRectangle x="230" y="140" width="160" height="26" as="alternateBounds" />
          </mxGeometry>
        </mxCell>
        <mxCell id="utAoDEEp-SabbnJM_b82-0" value="name: string" style="text;align=left;verticalAlign=top;spacingLeft=4;spacingRight=4;overflow=hidden;rotatable=0;points=[[0,0.5],[1,0.5]];portConstraint=eastwest;" parent="zkfFHV4jXpPFQw0GAbJ--0" vertex="1">
          <mxGeometry y="26" width="180" height="26" as="geometry" />
        </mxCell>
        <mxCell id="zkfFHV4jXpPFQw0GAbJ--3" value="startDate: DateTime" style="text;align=left;verticalAlign=top;spacingLeft=4;spacingRight=4;overflow=hidden;rotatable=0;points=[[0,0.5],[1,0.5]];portConstraint=eastwest;rounded=0;shadow=0;html=0;" parent="zkfFHV4jXpPFQw0GAbJ--0" vertex="1">
          <mxGeometry y="52" width="180" height="26" as="geometry" />
        </mxCell>
        <mxCell id="zkfFHV4jXpPFQw0GAbJ--5" value="endDate: DateTime" style="text;align=left;verticalAlign=top;spacingLeft=4;spacingRight=4;overflow=hidden;rotatable=0;points=[[0,0.5],[1,0.5]];portConstraint=eastwest;" parent="zkfFHV4jXpPFQw0GAbJ--0" vertex="1">
          <mxGeometry y="78" width="180" height="26" as="geometry" />
        </mxCell>
        <mxCell id="VQEMz4dwPsjli5dLN1M1-1" value="price: decimal" style="text;align=left;verticalAlign=top;spacingLeft=4;spacingRight=4;overflow=hidden;rotatable=0;points=[[0,0.5],[1,0.5]];portConstraint=eastwest;" parent="zkfFHV4jXpPFQw0GAbJ--0" vertex="1">
          <mxGeometry y="104" width="180" height="26" as="geometry" />
        </mxCell>
        <mxCell id="utAoDEEp-SabbnJM_b82-1" value="description: string" style="text;align=left;verticalAlign=top;spacingLeft=4;spacingRight=4;overflow=hidden;rotatable=0;points=[[0,0.5],[1,0.5]];portConstraint=eastwest;" parent="zkfFHV4jXpPFQw0GAbJ--0" vertex="1">
          <mxGeometry y="130" width="180" height="26" as="geometry" />
        </mxCell>
        <mxCell id="zkfFHV4jXpPFQw0GAbJ--4" value="" style="line;html=1;strokeWidth=1;align=left;verticalAlign=middle;spacingTop=-1;spacingLeft=3;spacingRight=3;rotatable=0;labelPosition=right;points=[];portConstraint=eastwest;" parent="zkfFHV4jXpPFQw0GAbJ--0" vertex="1">
          <mxGeometry y="156" width="180" height="8" as="geometry" />
        </mxCell>
        <mxCell id="C_EsbfpwRWPnECDQecND-1" value="+ToString(): string" style="text;strokeColor=none;fillColor=none;align=left;verticalAlign=top;spacingLeft=4;spacingRight=4;overflow=hidden;rotatable=0;points=[[0,0.5],[1,0.5]];portConstraint=eastwest;" parent="zkfFHV4jXpPFQw0GAbJ--0" vertex="1">
          <mxGeometry y="164" width="180" height="30" as="geometry" />
        </mxCell>
        <mxCell id="2jmDMZHl10Okt45zNtLh-0" value="+GetTotalPrice(): decimal" style="text;strokeColor=none;fillColor=none;align=left;verticalAlign=top;spacingLeft=4;spacingRight=4;overflow=hidden;rotatable=0;points=[[0,0.5],[1,0.5]];portConstraint=eastwest;" parent="zkfFHV4jXpPFQw0GAbJ--0" vertex="1">
          <mxGeometry y="194" width="180" height="30" as="geometry" />
        </mxCell>
        <mxCell id="lQss1ucjn63kBLKn9Jxe-7" value="" style="edgeStyle=orthogonalEdgeStyle;rounded=0;orthogonalLoop=1;jettySize=auto;html=1;" parent="WIyWlLk6GJQsqaUBKTNV-1" source="zkfFHV4jXpPFQw0GAbJ--6" target="lQss1ucjn63kBLKn9Jxe-1" edge="1">
          <mxGeometry relative="1" as="geometry" />
        </mxCell>
        <mxCell id="zkfFHV4jXpPFQw0GAbJ--6" value="Flight" style="swimlane;fontStyle=1;align=center;verticalAlign=top;childLayout=stackLayout;horizontal=1;startSize=26;horizontalStack=0;resizeParent=1;resizeLast=0;collapsible=1;marginBottom=0;rounded=0;shadow=0;strokeWidth=1;" parent="WIyWlLk6GJQsqaUBKTNV-1" vertex="1">
          <mxGeometry x="-520" y="470" width="270" height="310" as="geometry">
            <mxRectangle x="130" y="380" width="160" height="26" as="alternateBounds" />
          </mxGeometry>
        </mxCell>
        <mxCell id="zkfFHV4jXpPFQw0GAbJ--7" value="startDestination: string" style="text;align=left;verticalAlign=top;spacingLeft=4;spacingRight=4;overflow=hidden;rotatable=0;points=[[0,0.5],[1,0.5]];portConstraint=eastwest;" parent="zkfFHV4jXpPFQw0GAbJ--6" vertex="1">
          <mxGeometry y="26" width="270" height="26" as="geometry" />
        </mxCell>
        <mxCell id="VQEMz4dwPsjli5dLN1M1-0" value="seatNumber:Â  string" style="text;align=left;verticalAlign=top;spacingLeft=4;spacingRight=4;overflow=hidden;rotatable=0;points=[[0,0.5],[1,0.5]];portConstraint=eastwest;rounded=0;shadow=0;html=0;" parent="zkfFHV4jXpPFQw0GAbJ--6" vertex="1">
          <mxGeometry y="52" width="270" height="26" as="geometry" />
        </mxCell>
        <mxCell id="Aht6jg2wpK7Pzov774Rq-3" value="seatType: Seats" style="text;align=left;verticalAlign=top;spacingLeft=4;spacingRight=4;overflow=hidden;rotatable=0;points=[[0,0.5],[1,0.5]];portConstraint=eastwest;rounded=0;shadow=0;html=0;" parent="zkfFHV4jXpPFQw0GAbJ--6" vertex="1">
          <mxGeometry y="78" width="270" height="26" as="geometry" />
        </mxCell>
        <mxCell id="2jmDMZHl10Okt45zNtLh-5" value="extraLuggage: bool" style="text;align=left;verticalAlign=top;spacingLeft=4;spacingRight=4;overflow=hidden;rotatable=0;points=[[0,0.5],[1,0.5]];portConstraint=eastwest;rounded=0;shadow=0;html=0;" parent="zkfFHV4jXpPFQw0GAbJ--6" vertex="1">
          <mxGeometry y="104" width="270" height="26" as="geometry" />
        </mxCell>
        <mxCell id="zkfFHV4jXpPFQw0GAbJ--9" value="" style="line;html=1;strokeWidth=1;align=left;verticalAlign=middle;spacingTop=-1;spacingLeft=3;spacingRight=3;rotatable=0;labelPosition=right;points=[];portConstraint=eastwest;" parent="zkfFHV4jXpPFQw0GAbJ--6" vertex="1">
          <mxGeometry y="130" width="270" height="8" as="geometry" />
        </mxCell>
        <mxCell id="43SIrbHrldlaVyXlts3m-0" value="+Flightl(name: string, startDate: DateTime,&#xa;endDate: DateTime, price: decimal,&#xa;desciption: string, startDestination: &#xa;seatNumber: string, seatType: Seats,&#xa;extraLuggage: bool)" style="text;strokeColor=none;fillColor=none;align=left;verticalAlign=top;spacingLeft=4;spacingRight=4;overflow=hidden;rotatable=0;points=[[0,0.5],[1,0.5]];portConstraint=eastwest;spacing=2;fontSize=12;" parent="zkfFHV4jXpPFQw0GAbJ--6" vertex="1">
          <mxGeometry y="138" width="270" height="82" as="geometry" />
        </mxCell>
        <mxCell id="2jmDMZHl10Okt45zNtLh-4" value="+ToString(): string" style="text;strokeColor=none;fillColor=none;align=left;verticalAlign=top;spacingLeft=4;spacingRight=4;overflow=hidden;rotatable=0;points=[[0,0.5],[1,0.5]];portConstraint=eastwest;" parent="zkfFHV4jXpPFQw0GAbJ--6" vertex="1">
          <mxGeometry y="220" width="270" height="30" as="geometry" />
        </mxCell>
        <mxCell id="2jmDMZHl10Okt45zNtLh-1" value="+GetTotalPrice(): decimal" style="text;strokeColor=none;fillColor=none;align=left;verticalAlign=top;spacingLeft=4;spacingRight=4;overflow=hidden;rotatable=0;points=[[0,0.5],[1,0.5]];portConstraint=eastwest;" parent="zkfFHV4jXpPFQw0GAbJ--6" vertex="1">
          <mxGeometry y="250" width="270" height="30" as="geometry" />
        </mxCell>
        <mxCell id="zkfFHV4jXpPFQw0GAbJ--12" value="" style="endArrow=block;endSize=10;endFill=0;shadow=0;strokeWidth=1;rounded=0;edgeStyle=elbowEdgeStyle;elbow=vertical;" parent="WIyWlLk6GJQsqaUBKTNV-1" source="zkfFHV4jXpPFQw0GAbJ--6" target="zkfFHV4jXpPFQw0GAbJ--0" edge="1">
          <mxGeometry width="160" relative="1" as="geometry">
            <mxPoint x="-400" y="113" as="sourcePoint" />
            <mxPoint x="-400" y="113" as="targetPoint" />
          </mxGeometry>
        </mxCell>
        <mxCell id="lQss1ucjn63kBLKn9Jxe-4" value="" style="edgeStyle=orthogonalEdgeStyle;rounded=0;orthogonalLoop=1;jettySize=auto;html=1;" parent="WIyWlLk6GJQsqaUBKTNV-1" source="zkfFHV4jXpPFQw0GAbJ--13" target="lQss1ucjn63kBLKn9Jxe-0" edge="1">
          <mxGeometry relative="1" as="geometry" />
        </mxCell>
        <mxCell id="lQss1ucjn63kBLKn9Jxe-6" style="edgeStyle=orthogonalEdgeStyle;rounded=0;orthogonalLoop=1;jettySize=auto;html=1;" parent="WIyWlLk6GJQsqaUBKTNV-1" source="zkfFHV4jXpPFQw0GAbJ--13" target="nRHBkHZVrU-RLKMIbB6R-2" edge="1">
          <mxGeometry relative="1" as="geometry" />
        </mxCell>
        <mxCell id="zkfFHV4jXpPFQw0GAbJ--13" value="Hotel" style="swimlane;fontStyle=1;align=center;verticalAlign=top;childLayout=stackLayout;horizontal=1;startSize=26;horizontalStack=0;resizeParent=1;resizeLast=0;collapsible=1;marginBottom=0;rounded=0;shadow=0;strokeWidth=1;" parent="WIyWlLk6GJQsqaUBKTNV-1" vertex="1">
          <mxGeometry x="-170" y="470" width="250" height="300" as="geometry">
            <mxRectangle x="340" y="380" width="170" height="26" as="alternateBounds" />
          </mxGeometry>
        </mxCell>
        <mxCell id="TyNt977xd4QdL1hx_3y8-1" value="location: string" style="text;align=left;verticalAlign=top;spacingLeft=4;spacingRight=4;overflow=hidden;rotatable=0;points=[[0,0.5],[1,0.5]];portConstraint=eastwest;rounded=0;shadow=0;html=0;" parent="zkfFHV4jXpPFQw0GAbJ--13" vertex="1">
          <mxGeometry y="26" width="250" height="26" as="geometry" />
        </mxCell>
        <mxCell id="Aht6jg2wpK7Pzov774Rq-0" value="RoomNr: int" style="text;align=left;verticalAlign=top;spacingLeft=4;spacingRight=4;overflow=hidden;rotatable=0;points=[[0,0.5],[1,0.5]];portConstraint=eastwest;rounded=0;shadow=0;html=0;" parent="zkfFHV4jXpPFQw0GAbJ--13" vertex="1">
          <mxGeometry y="52" width="250" height="26" as="geometry" />
        </mxCell>
        <mxCell id="TyNt977xd4QdL1hx_3y8-2" value="RoomType: Rooms" style="text;align=left;verticalAlign=top;spacingLeft=4;spacingRight=4;overflow=hidden;rotatable=0;points=[[0,0.5],[1,0.5]];portConstraint=eastwest;rounded=0;shadow=0;html=0;" parent="zkfFHV4jXpPFQw0GAbJ--13" vertex="1">
          <mxGeometry y="78" width="250" height="26" as="geometry" />
        </mxCell>
        <mxCell id="9E21BVVpQMDXRQEgcFaV-2" value="review: List&lt;Review&gt;" style="text;align=left;verticalAlign=top;spacingLeft=4;spacingRight=4;overflow=hidden;rotatable=0;points=[[0,0.5],[1,0.5]];portConstraint=eastwest;rounded=0;shadow=0;html=0;" parent="zkfFHV4jXpPFQw0GAbJ--13" vertex="1">
          <mxGeometry y="104" width="250" height="26" as="geometry" />
        </mxCell>
        <mxCell id="zkfFHV4jXpPFQw0GAbJ--15" value="" style="line;html=1;strokeWidth=1;align=left;verticalAlign=middle;spacingTop=-1;spacingLeft=3;spacingRight=3;rotatable=0;labelPosition=right;points=[];portConstraint=eastwest;" parent="zkfFHV4jXpPFQw0GAbJ--13" vertex="1">
          <mxGeometry y="130" width="250" height="8" as="geometry" />
        </mxCell>
        <mxCell id="2jmDMZHl10Okt45zNtLh-3" value="+Hotel(name: string, startDate: DateTime,&#xa;endDate: DateTime, price: decimal, &#xa;desciption: string, location: string, roomNr: int&#xa;roomtype: Rooms)" style="text;strokeColor=none;fillColor=none;align=left;verticalAlign=top;spacingLeft=4;spacingRight=4;overflow=hidden;rotatable=0;points=[[0,0.5],[1,0.5]];portConstraint=eastwest;" parent="zkfFHV4jXpPFQw0GAbJ--13" vertex="1">
          <mxGeometry y="138" width="250" height="72" as="geometry" />
        </mxCell>
        <mxCell id="Dq7NXtVAsNijryGgAZOb-0" value="+ToString(): string" style="text;strokeColor=none;fillColor=none;align=left;verticalAlign=top;spacingLeft=4;spacingRight=4;overflow=hidden;rotatable=0;points=[[0,0.5],[1,0.5]];portConstraint=eastwest;" parent="zkfFHV4jXpPFQw0GAbJ--13" vertex="1">
          <mxGeometry y="210" width="250" height="30" as="geometry" />
        </mxCell>
        <mxCell id="2jmDMZHl10Okt45zNtLh-2" value="+GetTotalPrice(): decimal" style="text;strokeColor=none;fillColor=none;align=left;verticalAlign=top;spacingLeft=4;spacingRight=4;overflow=hidden;rotatable=0;points=[[0,0.5],[1,0.5]];portConstraint=eastwest;" parent="zkfFHV4jXpPFQw0GAbJ--13" vertex="1">
          <mxGeometry y="240" width="250" height="30" as="geometry" />
        </mxCell>
        <mxCell id="9S1JQjqlHhP_J077ivqX-0" value="+AddReview(Review review): void" style="text;strokeColor=none;fillColor=none;align=left;verticalAlign=top;spacingLeft=4;spacingRight=4;overflow=hidden;rotatable=0;points=[[0,0.5],[1,0.5]];portConstraint=eastwest;" parent="zkfFHV4jXpPFQw0GAbJ--13" vertex="1">
          <mxGeometry y="270" width="250" height="30" as="geometry" />
        </mxCell>
        <mxCell id="zkfFHV4jXpPFQw0GAbJ--16" value="" style="endArrow=block;endSize=10;endFill=0;shadow=0;strokeWidth=1;rounded=0;edgeStyle=elbowEdgeStyle;elbow=vertical;" parent="WIyWlLk6GJQsqaUBKTNV-1" source="zkfFHV4jXpPFQw0GAbJ--13" target="zkfFHV4jXpPFQw0GAbJ--0" edge="1">
          <mxGeometry width="160" relative="1" as="geometry">
            <mxPoint x="-390" y="283" as="sourcePoint" />
            <mxPoint x="-290" y="181" as="targetPoint" />
          </mxGeometry>
        </mxCell>
        <mxCell id="9S1JQjqlHhP_J077ivqX-1" style="edgeStyle=orthogonalEdgeStyle;rounded=0;orthogonalLoop=1;jettySize=auto;html=1;entryX=0.543;entryY=0.002;entryDx=0;entryDy=0;entryPerimeter=0;" parent="WIyWlLk6GJQsqaUBKTNV-1" source="hGgogOviEhiyHyWc9UOM-0" target="zkfFHV4jXpPFQw0GAbJ--0" edge="1">
          <mxGeometry relative="1" as="geometry">
            <Array as="points">
              <mxPoint x="790" y="526" />
              <mxPoint x="790" y="80" />
              <mxPoint x="-182" y="80" />
            </Array>
          </mxGeometry>
        </mxCell>
        <mxCell id="hGgogOviEhiyHyWc9UOM-0" value="User" style="swimlane;fontStyle=1;align=center;verticalAlign=top;childLayout=stackLayout;horizontal=1;startSize=26;horizontalStack=0;resizeParent=1;resizeParentMax=0;resizeLast=0;collapsible=1;marginBottom=0;" parent="WIyWlLk6GJQsqaUBKTNV-1" vertex="1">
          <mxGeometry x="440" y="371" width="279" height="310" as="geometry" />
        </mxCell>
        <mxCell id="hGgogOviEhiyHyWc9UOM-1" value="+FirstName {get; set;}: string" style="text;strokeColor=none;fillColor=none;align=left;verticalAlign=top;spacingLeft=4;spacingRight=4;overflow=hidden;rotatable=0;points=[[0,0.5],[1,0.5]];portConstraint=eastwest;" parent="hGgogOviEhiyHyWc9UOM-0" vertex="1">
          <mxGeometry y="26" width="279" height="30" as="geometry" />
        </mxCell>
        <mxCell id="hGgogOviEhiyHyWc9UOM-2" value="+LastName {get; set;}: string" style="text;strokeColor=none;fillColor=none;align=left;verticalAlign=top;spacingLeft=4;spacingRight=4;overflow=hidden;rotatable=0;points=[[0,0.5],[1,0.5]];portConstraint=eastwest;" parent="hGgogOviEhiyHyWc9UOM-0" vertex="1">
          <mxGeometry y="56" width="279" height="30" as="geometry" />
        </mxCell>
        <mxCell id="hGgogOviEhiyHyWc9UOM-3" value="+UserId {get; set;}: int" style="text;strokeColor=none;fillColor=none;align=left;verticalAlign=top;spacingLeft=4;spacingRight=4;overflow=hidden;rotatable=0;points=[[0,0.5],[1,0.5]];portConstraint=eastwest;" parent="hGgogOviEhiyHyWc9UOM-0" vertex="1">
          <mxGeometry y="86" width="279" height="30" as="geometry" />
        </mxCell>
        <mxCell id="hGgogOviEhiyHyWc9UOM-4" value="+Email {get; set;}: string" style="text;strokeColor=none;fillColor=none;align=left;verticalAlign=top;spacingLeft=4;spacingRight=4;overflow=hidden;rotatable=0;points=[[0,0.5],[1,0.5]];portConstraint=eastwest;" parent="hGgogOviEhiyHyWc9UOM-0" vertex="1">
          <mxGeometry y="116" width="279" height="30" as="geometry" />
        </mxCell>
        <mxCell id="hGgogOviEhiyHyWc9UOM-5" value="+Password {get; set;}: string" style="text;strokeColor=none;fillColor=none;align=left;verticalAlign=top;spacingLeft=4;spacingRight=4;overflow=hidden;rotatable=0;points=[[0,0.5],[1,0.5]];portConstraint=eastwest;" parent="hGgogOviEhiyHyWc9UOM-0" vertex="1">
          <mxGeometry y="146" width="279" height="30" as="geometry" />
        </mxCell>
        <mxCell id="hGgogOviEhiyHyWc9UOM-8" value="+User(string firstName, string lastName, int userid, &#xa;string email, string password)" style="text;strokeColor=none;fillColor=none;align=left;verticalAlign=top;spacingLeft=4;spacingRight=4;overflow=hidden;rotatable=0;points=[[0,0.5],[1,0.5]];portConstraint=eastwest;" parent="hGgogOviEhiyHyWc9UOM-0" vertex="1">
          <mxGeometry y="176" width="279" height="44" as="geometry" />
        </mxCell>
        <mxCell id="hGgogOviEhiyHyWc9UOM-9" value="+CheckPassword(string password): bool" style="text;strokeColor=none;fillColor=none;align=left;verticalAlign=top;spacingLeft=4;spacingRight=4;overflow=hidden;rotatable=0;points=[[0,0.5],[1,0.5]];portConstraint=eastwest;" parent="hGgogOviEhiyHyWc9UOM-0" vertex="1">
          <mxGeometry y="220" width="279" height="30" as="geometry" />
        </mxCell>
        <mxCell id="C_EsbfpwRWPnECDQecND-3" value="+GetInfo(): string" style="text;strokeColor=none;fillColor=none;align=left;verticalAlign=top;spacingLeft=4;spacingRight=4;overflow=hidden;rotatable=0;points=[[0,0.5],[1,0.5]];portConstraint=eastwest;" parent="hGgogOviEhiyHyWc9UOM-0" vertex="1">
          <mxGeometry y="250" width="279" height="30" as="geometry" />
        </mxCell>
        <mxCell id="hGgogOviEhiyHyWc9UOM-10" value="+GetFullName(): string" style="text;strokeColor=none;fillColor=none;align=left;verticalAlign=top;spacingLeft=4;spacingRight=4;overflow=hidden;rotatable=0;points=[[0,0.5],[1,0.5]];portConstraint=eastwest;" parent="hGgogOviEhiyHyWc9UOM-0" vertex="1">
          <mxGeometry y="280" width="279" height="30" as="geometry" />
        </mxCell>
        <mxCell id="vDkglNm8gPwN-g2eAuHI-1" style="edgeStyle=orthogonalEdgeStyle;rounded=0;orthogonalLoop=1;jettySize=auto;html=1;" parent="WIyWlLk6GJQsqaUBKTNV-1" source="hGgogOviEhiyHyWc9UOM-11" target="zkfFHV4jXpPFQw0GAbJ--0" edge="1">
          <mxGeometry relative="1" as="geometry">
            <Array as="points">
              <mxPoint x="-40" y="184" />
              <mxPoint x="-40" y="184" />
            </Array>
          </mxGeometry>
        </mxCell>
        <mxCell id="9E21BVVpQMDXRQEgcFaV-1" style="edgeStyle=orthogonalEdgeStyle;rounded=0;orthogonalLoop=1;jettySize=auto;html=1;entryX=0.5;entryY=0;entryDx=0;entryDy=0;" parent="WIyWlLk6GJQsqaUBKTNV-1" source="hGgogOviEhiyHyWc9UOM-11" target="hGgogOviEhiyHyWc9UOM-0" edge="1">
          <mxGeometry relative="1" as="geometry" />
        </mxCell>
        <mxCell id="hGgogOviEhiyHyWc9UOM-11" value="Administration" style="swimlane;fontStyle=1;align=center;verticalAlign=top;childLayout=stackLayout;horizontal=1;startSize=26;horizontalStack=0;resizeParent=1;resizeParentMax=0;resizeLast=0;collapsible=1;marginBottom=0;" parent="WIyWlLk6GJQsqaUBKTNV-1" vertex="1">
          <mxGeometry x="171" y="113" width="279" height="142" as="geometry" />
        </mxCell>
        <mxCell id="hGgogOviEhiyHyWc9UOM-12" value="+Bookings: List&lt;Booking&gt;" style="text;strokeColor=none;fillColor=none;align=left;verticalAlign=top;spacingLeft=4;spacingRight=4;overflow=hidden;rotatable=0;points=[[0,0.5],[1,0.5]];portConstraint=eastwest;" parent="hGgogOviEhiyHyWc9UOM-11" vertex="1">
          <mxGeometry y="26" width="279" height="26" as="geometry" />
        </mxCell>
        <mxCell id="hGgogOviEhiyHyWc9UOM-14" value="" style="line;strokeWidth=1;fillColor=none;align=left;verticalAlign=middle;spacingTop=-1;spacingLeft=3;spacingRight=3;rotatable=0;labelPosition=right;points=[];portConstraint=eastwest;strokeColor=inherit;" parent="hGgogOviEhiyHyWc9UOM-11" vertex="1">
          <mxGeometry y="52" width="279" height="8" as="geometry" />
        </mxCell>
        <mxCell id="hGgogOviEhiyHyWc9UOM-21" value="+ Administration()" style="text;strokeColor=none;fillColor=none;align=left;verticalAlign=top;spacingLeft=4;spacingRight=4;overflow=hidden;rotatable=0;points=[[0,0.5],[1,0.5]];portConstraint=eastwest;" parent="hGgogOviEhiyHyWc9UOM-11" vertex="1">
          <mxGeometry y="60" width="279" height="26" as="geometry" />
        </mxCell>
        <mxCell id="hGgogOviEhiyHyWc9UOM-22" value="+AddBooking(Booking booking): void" style="text;strokeColor=none;fillColor=none;align=left;verticalAlign=top;spacingLeft=4;spacingRight=4;overflow=hidden;rotatable=0;points=[[0,0.5],[1,0.5]];portConstraint=eastwest;" parent="hGgogOviEhiyHyWc9UOM-11" vertex="1">
          <mxGeometry y="86" width="279" height="26" as="geometry" />
        </mxCell>
        <mxCell id="hGgogOviEhiyHyWc9UOM-32" value="+RemoveBooking(Booking booking): void" style="text;strokeColor=none;fillColor=none;align=left;verticalAlign=top;spacingLeft=4;spacingRight=4;overflow=hidden;rotatable=0;points=[[0,0.5],[1,0.5]];portConstraint=eastwest;" parent="hGgogOviEhiyHyWc9UOM-11" vertex="1">
          <mxGeometry y="112" width="279" height="30" as="geometry" />
        </mxCell>
        <mxCell id="xV1VRQ49jgxcVeSwC3H7-0" style="edgeStyle=orthogonalEdgeStyle;rounded=0;orthogonalLoop=1;jettySize=auto;html=1;" parent="WIyWlLk6GJQsqaUBKTNV-1" source="nRHBkHZVrU-RLKMIbB6R-2" target="hGgogOviEhiyHyWc9UOM-0" edge="1">
          <mxGeometry relative="1" as="geometry" />
        </mxCell>
        <mxCell id="nRHBkHZVrU-RLKMIbB6R-2" value="Review" style="swimlane;fontStyle=1;align=center;verticalAlign=top;childLayout=stackLayout;horizontal=1;startSize=26;horizontalStack=0;resizeParent=1;resizeLast=0;collapsible=1;marginBottom=0;rounded=0;shadow=0;strokeWidth=1;" parent="WIyWlLk6GJQsqaUBKTNV-1" vertex="1">
          <mxGeometry x="190" y="464" width="160" height="112" as="geometry">
            <mxRectangle x="340" y="380" width="170" height="26" as="alternateBounds" />
          </mxGeometry>
        </mxCell>
        <mxCell id="zkfFHV4jXpPFQw0GAbJ--8" value="user: User" style="text;align=left;verticalAlign=top;spacingLeft=4;spacingRight=4;overflow=hidden;rotatable=0;points=[[0,0.5],[1,0.5]];portConstraint=eastwest;rounded=0;shadow=0;html=0;" parent="nRHBkHZVrU-RLKMIbB6R-2" vertex="1">
          <mxGeometry y="26" width="160" height="26" as="geometry" />
        </mxCell>
        <mxCell id="9E21BVVpQMDXRQEgcFaV-0" value="description: string" style="text;align=left;verticalAlign=top;spacingLeft=4;spacingRight=4;overflow=hidden;rotatable=0;points=[[0,0.5],[1,0.5]];portConstraint=eastwest;" parent="nRHBkHZVrU-RLKMIbB6R-2" vertex="1">
          <mxGeometry y="52" width="160" height="26" as="geometry" />
        </mxCell>
        <mxCell id="lQss1ucjn63kBLKn9Jxe-3" value="rating: int" style="text;align=left;verticalAlign=top;spacingLeft=4;spacingRight=4;overflow=hidden;rotatable=0;points=[[0,0.5],[1,0.5]];portConstraint=eastwest;" parent="nRHBkHZVrU-RLKMIbB6R-2" vertex="1">
          <mxGeometry y="78" width="160" height="26" as="geometry" />
        </mxCell>
        <mxCell id="nRHBkHZVrU-RLKMIbB6R-3" value="" style="line;html=1;strokeWidth=1;align=left;verticalAlign=middle;spacingTop=-1;spacingLeft=3;spacingRight=3;rotatable=0;labelPosition=right;points=[];portConstraint=eastwest;" parent="nRHBkHZVrU-RLKMIbB6R-2" vertex="1">
          <mxGeometry y="104" width="160" height="8" as="geometry" />
        </mxCell>
        <mxCell id="lQss1ucjn63kBLKn9Jxe-0" value="&lt;p style=&quot;margin:0px;margin-top:4px;text-align:center;&quot;&gt;&lt;i&gt;&amp;lt;&amp;lt;&lt;/i&gt;enumeration&lt;i&gt;&amp;gt;&amp;gt;&lt;/i&gt;&lt;br&gt;&lt;b&gt;Rooms&lt;/b&gt;&lt;/p&gt;&lt;hr size=&quot;1&quot;&gt;&lt;p style=&quot;margin:0px;margin-left:4px;&quot;&gt;SINGLE&lt;/p&gt;&lt;p style=&quot;margin:0px;margin-left:4px;&quot;&gt;NORMAL&lt;/p&gt;&lt;p style=&quot;margin:0px;margin-left:4px;&quot;&gt;FAMILY&lt;/p&gt;" style="verticalAlign=top;align=left;overflow=fill;fontSize=12;fontFamily=Helvetica;html=1;" parent="WIyWlLk6GJQsqaUBKTNV-1" vertex="1">
          <mxGeometry x="-140" y="820" width="170" height="110" as="geometry" />
        </mxCell>
        <mxCell id="lQss1ucjn63kBLKn9Jxe-1" value="&lt;p style=&quot;margin:0px;margin-top:4px;text-align:center;&quot;&gt;&lt;i&gt;&amp;lt;&amp;lt;&lt;/i&gt;enumeration&lt;i&gt;&amp;gt;&amp;gt;&lt;/i&gt;&lt;br&gt;&lt;b&gt;Seats&lt;/b&gt;&lt;/p&gt;&lt;hr size=&quot;1&quot;&gt;&lt;p style=&quot;margin:0px;margin-left:4px;&quot;&gt;ECONOMY&lt;br&gt;&lt;/p&gt;&lt;p style=&quot;margin:0px;margin-left:4px;&quot;&gt;&lt;span style=&quot;background-color: initial;&quot;&gt;PREMIUM ECONOMY&lt;/span&gt;&lt;/p&gt;&lt;p style=&quot;margin:0px;margin-left:4px;&quot;&gt;BUSINESS&lt;/p&gt;&lt;p style=&quot;margin:0px;margin-left:4px;&quot;&gt;FIRST CLASS&lt;/p&gt;" style="verticalAlign=top;align=left;overflow=fill;fontSize=12;fontFamily=Helvetica;html=1;" parent="WIyWlLk6GJQsqaUBKTNV-1" vertex="1">
          <mxGeometry x="-418" y="820" width="170" height="120" as="geometry" />
        </mxCell>
        <mxCell id="P3jjdYIrpu_Pr1S5bxwg-0" value="*" style="text;html=1;strokeColor=none;fillColor=none;align=center;verticalAlign=middle;whiteSpace=wrap;rounded=0;fontSize=30;fontStyle=1" parent="WIyWlLk6GJQsqaUBKTNV-1" vertex="1">
          <mxGeometry x="111" y="490" width="60" height="20" as="geometry" />
        </mxCell>
        <mxCell id="P3jjdYIrpu_Pr1S5bxwg-1" value="1" style="text;html=1;strokeColor=none;fillColor=none;align=center;verticalAlign=middle;whiteSpace=wrap;rounded=0;fontSize=15;fontStyle=1" parent="WIyWlLk6GJQsqaUBKTNV-1" vertex="1">
          <mxGeometry x="360" y="500" width="60" height="20" as="geometry" />
        </mxCell>
        <mxCell id="P3jjdYIrpu_Pr1S5bxwg-2" value="1" style="text;html=1;strokeColor=none;fillColor=none;align=center;verticalAlign=middle;whiteSpace=wrap;rounded=0;fontSize=15;fontStyle=1" parent="WIyWlLk6GJQsqaUBKTNV-1" vertex="1">
          <mxGeometry x="-40" y="790" width="60" height="20" as="geometry" />
        </mxCell>
        <mxCell id="P3jjdYIrpu_Pr1S5bxwg-3" value="1" style="text;html=1;strokeColor=none;fillColor=none;align=center;verticalAlign=middle;whiteSpace=wrap;rounded=0;fontSize=15;fontStyle=1" parent="WIyWlLk6GJQsqaUBKTNV-1" vertex="1">
          <mxGeometry x="-340" y="790" width="60" height="20" as="geometry" />
        </mxCell>
        <mxCell id="P3jjdYIrpu_Pr1S5bxwg-4" value="*" style="text;html=1;strokeColor=none;fillColor=none;align=center;verticalAlign=middle;whiteSpace=wrap;rounded=0;fontSize=30;fontStyle=1" parent="WIyWlLk6GJQsqaUBKTNV-1" vertex="1">
          <mxGeometry x="80" y="170" width="60" height="20" as="geometry" />
        </mxCell>
        <mxCell id="9S1JQjqlHhP_J077ivqX-2" value="*" style="text;html=1;strokeColor=none;fillColor=none;align=center;verticalAlign=middle;whiteSpace=wrap;rounded=0;fontSize=30;fontStyle=1" parent="WIyWlLk6GJQsqaUBKTNV-1" vertex="1">
          <mxGeometry x="730" y="510" width="60" height="20" as="geometry" />
        </mxCell>
      </root>
    </mxGraphModel>
  </diagram>
  <diagram id="Xgxcmo1Z55lHKZjHoJyY" name="Version 1.2">
    <mxGraphModel dx="3585" dy="1990" grid="1" gridSize="10" guides="1" tooltips="1" connect="1" arrows="1" fold="1" page="1" pageScale="1" pageWidth="850" pageHeight="1100" math="0" shadow="0">
      <root>
        <mxCell id="0" />
        <mxCell id="1" parent="0" />
        <mxCell id="5SiUqiSRyqai7jgbCewg-4" style="edgeStyle=orthogonalEdgeStyle;rounded=0;orthogonalLoop=1;jettySize=auto;html=1;entryX=0.5;entryY=0;entryDx=0;entryDy=0;" parent="1" source="U3jiL1mCxAqjv2TIkaDy-1" target="U3jiL1mCxAqjv2TIkaDy-35" edge="1">
          <mxGeometry relative="1" as="geometry" />
        </mxCell>
        <mxCell id="U3jiL1mCxAqjv2TIkaDy-1" value="Booking" style="swimlane;fontStyle=3;align=center;verticalAlign=top;childLayout=stackLayout;horizontal=1;startSize=26;horizontalStack=0;resizeParent=1;resizeLast=0;collapsible=1;marginBottom=0;rounded=0;shadow=0;strokeWidth=1;" parent="1" vertex="1">
          <mxGeometry x="420" y="130" width="220" height="224" as="geometry">
            <mxRectangle x="230" y="140" width="160" height="26" as="alternateBounds" />
          </mxGeometry>
        </mxCell>
        <mxCell id="U3jiL1mCxAqjv2TIkaDy-2" value="+BookingId {get; set;}: int" style="text;align=left;verticalAlign=top;spacingLeft=4;spacingRight=4;overflow=hidden;rotatable=0;points=[[0,0.5],[1,0.5]];portConstraint=eastwest;" parent="U3jiL1mCxAqjv2TIkaDy-1" vertex="1">
          <mxGeometry y="26" width="220" height="26" as="geometry" />
        </mxCell>
        <mxCell id="U3jiL1mCxAqjv2TIkaDy-4" value="+User {get; set;}: User" style="text;align=left;verticalAlign=top;spacingLeft=4;spacingRight=4;overflow=hidden;rotatable=0;points=[[0,0.5],[1,0.5]];portConstraint=eastwest;" parent="U3jiL1mCxAqjv2TIkaDy-1" vertex="1">
          <mxGeometry y="52" width="220" height="26" as="geometry" />
        </mxCell>
        <mxCell id="U3jiL1mCxAqjv2TIkaDy-6" value="+StartDate { get; set; }:Â DateTime" style="text;align=left;verticalAlign=top;spacingLeft=4;spacingRight=4;overflow=hidden;rotatable=0;points=[[0,0.5],[1,0.5]];portConstraint=eastwest;" parent="U3jiL1mCxAqjv2TIkaDy-1" vertex="1">
          <mxGeometry y="78" width="220" height="26" as="geometry" />
        </mxCell>
        <mxCell id="_JRavNT2pa2kCFrqy6NS-6" value="&lt;span style=&quot;color: rgb(0, 0, 0); font-family: Helvetica; font-size: 12px; font-style: normal; font-variant-ligatures: normal; font-variant-caps: normal; font-weight: 400; letter-spacing: normal; orphans: 2; text-align: left; text-indent: 0px; text-transform: none; widows: 2; word-spacing: 0px; -webkit-text-stroke-width: 0px; background-color: rgb(251, 251, 251); text-decoration-thickness: initial; text-decoration-style: initial; text-decoration-color: initial; float: none; display: inline !important;&quot;&gt;&amp;nbsp;+EndDate { get; set; }:&amp;nbsp;DateTime&lt;/span&gt;" style="text;whiteSpace=wrap;html=1;" parent="U3jiL1mCxAqjv2TIkaDy-1" vertex="1">
          <mxGeometry y="104" width="220" height="26" as="geometry" />
        </mxCell>
        <mxCell id="F3ic5ik2U2Yg9wo_qOpf-1" value="+Price {get; set;}: decimal" style="text;align=left;verticalAlign=top;spacingLeft=4;spacingRight=4;overflow=hidden;rotatable=0;points=[[0,0.5],[1,0.5]];portConstraint=eastwest;" parent="U3jiL1mCxAqjv2TIkaDy-1" vertex="1">
          <mxGeometry y="130" width="220" height="26" as="geometry" />
        </mxCell>
        <mxCell id="U3jiL1mCxAqjv2TIkaDy-8" value="+Description {get; set;}: string" style="text;strokeColor=none;fillColor=none;align=left;verticalAlign=top;spacingLeft=4;spacingRight=4;overflow=hidden;rotatable=0;points=[[0,0.5],[1,0.5]];portConstraint=eastwest;" parent="U3jiL1mCxAqjv2TIkaDy-1" vertex="1">
          <mxGeometry y="156" width="220" height="30" as="geometry" />
        </mxCell>
        <mxCell id="F3ic5ik2U2Yg9wo_qOpf-2" value="+BookingDate { get; set; }:Â DateTime" style="text;align=left;verticalAlign=top;spacingLeft=4;spacingRight=4;overflow=hidden;rotatable=0;points=[[0,0.5],[1,0.5]];portConstraint=eastwest;" parent="U3jiL1mCxAqjv2TIkaDy-1" vertex="1">
          <mxGeometry y="186" width="220" height="26" as="geometry" />
        </mxCell>
        <mxCell id="YtIeAyyW_E95fq6XK8zX-2" style="edgeStyle=orthogonalEdgeStyle;rounded=0;orthogonalLoop=1;jettySize=auto;html=1;entryX=0.435;entryY=0;entryDx=0;entryDy=0;entryPerimeter=0;" parent="1" source="U3jiL1mCxAqjv2TIkaDy-11" target="U3jiL1mCxAqjv2TIkaDy-77" edge="1">
          <mxGeometry relative="1" as="geometry" />
        </mxCell>
        <mxCell id="U3jiL1mCxAqjv2TIkaDy-11" value="FlightBooking" style="swimlane;fontStyle=1;align=center;verticalAlign=top;childLayout=stackLayout;horizontal=1;startSize=26;horizontalStack=0;resizeParent=1;resizeLast=0;collapsible=1;marginBottom=0;rounded=0;shadow=0;strokeWidth=1;" parent="1" vertex="1">
          <mxGeometry x="40" y="460" width="270" height="310" as="geometry">
            <mxRectangle x="130" y="380" width="160" height="26" as="alternateBounds" />
          </mxGeometry>
        </mxCell>
        <mxCell id="UcbEwltc-1z48T3eR7cA-2" value="+FlightId {get; set;}: int" style="text;align=left;verticalAlign=top;spacingLeft=4;spacingRight=4;overflow=hidden;rotatable=0;points=[[0,0.5],[1,0.5]];portConstraint=eastwest;" parent="U3jiL1mCxAqjv2TIkaDy-11" vertex="1">
          <mxGeometry y="26" width="270" height="26" as="geometry" />
        </mxCell>
        <mxCell id="UcbEwltc-1z48T3eR7cA-3" value="+Flight {get; set;}: Flight" style="text;align=left;verticalAlign=top;spacingLeft=4;spacingRight=4;overflow=hidden;rotatable=0;points=[[0,0.5],[1,0.5]];portConstraint=eastwest;" parent="U3jiL1mCxAqjv2TIkaDy-11" vertex="1">
          <mxGeometry y="52" width="270" height="26" as="geometry" />
        </mxCell>
        <mxCell id="U3jiL1mCxAqjv2TIkaDy-15" value="+ExtraLuggage{get; set;}: bool" style="text;align=left;verticalAlign=top;spacingLeft=4;spacingRight=4;overflow=hidden;rotatable=0;points=[[0,0.5],[1,0.5]];portConstraint=eastwest;rounded=0;shadow=0;html=0;" parent="U3jiL1mCxAqjv2TIkaDy-11" vertex="1">
          <mxGeometry y="78" width="270" height="26" as="geometry" />
        </mxCell>
        <mxCell id="U3jiL1mCxAqjv2TIkaDy-16" value="" style="line;html=1;strokeWidth=1;align=left;verticalAlign=middle;spacingTop=-1;spacingLeft=3;spacingRight=3;rotatable=0;labelPosition=right;points=[];portConstraint=eastwest;" parent="U3jiL1mCxAqjv2TIkaDy-11" vertex="1">
          <mxGeometry y="104" width="270" height="8" as="geometry" />
        </mxCell>
        <mxCell id="U3jiL1mCxAqjv2TIkaDy-20" value="" style="endArrow=block;endSize=10;endFill=0;shadow=0;strokeWidth=1;rounded=0;edgeStyle=elbowEdgeStyle;elbow=vertical;" parent="1" source="U3jiL1mCxAqjv2TIkaDy-11" target="U3jiL1mCxAqjv2TIkaDy-1" edge="1">
          <mxGeometry width="160" relative="1" as="geometry">
            <mxPoint x="340" y="163" as="sourcePoint" />
            <mxPoint x="340" y="163" as="targetPoint" />
          </mxGeometry>
        </mxCell>
        <mxCell id="YtIeAyyW_E95fq6XK8zX-3" style="edgeStyle=orthogonalEdgeStyle;rounded=0;orthogonalLoop=1;jettySize=auto;html=1;entryX=0.5;entryY=0;entryDx=0;entryDy=0;" parent="1" source="U3jiL1mCxAqjv2TIkaDy-23" target="U3jiL1mCxAqjv2TIkaDy-67" edge="1">
          <mxGeometry relative="1" as="geometry" />
        </mxCell>
        <mxCell id="U3jiL1mCxAqjv2TIkaDy-23" value="HotelBooking" style="swimlane;fontStyle=1;align=center;verticalAlign=top;childLayout=stackLayout;horizontal=1;startSize=26;horizontalStack=0;resizeParent=1;resizeLast=0;collapsible=1;marginBottom=0;rounded=0;shadow=0;strokeWidth=1;" parent="1" vertex="1">
          <mxGeometry x="640" y="460" width="250" height="302" as="geometry">
            <mxRectangle x="340" y="380" width="170" height="26" as="alternateBounds" />
          </mxGeometry>
        </mxCell>
        <mxCell id="UcbEwltc-1z48T3eR7cA-1" value="+HotelId {get; set;}: int" style="text;align=left;verticalAlign=top;spacingLeft=4;spacingRight=4;overflow=hidden;rotatable=0;points=[[0,0.5],[1,0.5]];portConstraint=eastwest;" parent="U3jiL1mCxAqjv2TIkaDy-23" vertex="1">
          <mxGeometry y="26" width="250" height="26" as="geometry" />
        </mxCell>
        <mxCell id="UcbEwltc-1z48T3eR7cA-4" value="+Hotel {get; set;}: Hotel" style="text;align=left;verticalAlign=top;spacingLeft=4;spacingRight=4;overflow=hidden;rotatable=0;points=[[0,0.5],[1,0.5]];portConstraint=eastwest;" parent="U3jiL1mCxAqjv2TIkaDy-23" vertex="1">
          <mxGeometry y="52" width="250" height="26" as="geometry" />
        </mxCell>
        <mxCell id="U3jiL1mCxAqjv2TIkaDy-28" value="" style="line;html=1;strokeWidth=1;align=left;verticalAlign=middle;spacingTop=-1;spacingLeft=3;spacingRight=3;rotatable=0;labelPosition=right;points=[];portConstraint=eastwest;" parent="U3jiL1mCxAqjv2TIkaDy-23" vertex="1">
          <mxGeometry y="78" width="250" height="32" as="geometry" />
        </mxCell>
        <mxCell id="U3jiL1mCxAqjv2TIkaDy-33" value="" style="endArrow=block;endSize=10;endFill=0;shadow=0;strokeWidth=1;rounded=0;edgeStyle=elbowEdgeStyle;elbow=vertical;" parent="1" source="U3jiL1mCxAqjv2TIkaDy-23" target="U3jiL1mCxAqjv2TIkaDy-1" edge="1">
          <mxGeometry width="160" relative="1" as="geometry">
            <mxPoint x="350" y="333" as="sourcePoint" />
            <mxPoint x="450" y="231" as="targetPoint" />
          </mxGeometry>
        </mxCell>
        <mxCell id="Un3Rf1JineqLG3wFpqzp-2" style="edgeStyle=orthogonalEdgeStyle;rounded=0;orthogonalLoop=1;jettySize=auto;html=1;entryX=0.5;entryY=0;entryDx=0;entryDy=0;" parent="1" source="U3jiL1mCxAqjv2TIkaDy-35" target="U3jiL1mCxAqjv2TIkaDy-1" edge="1">
          <mxGeometry relative="1" as="geometry">
            <Array as="points">
              <mxPoint x="1330" y="110" />
              <mxPoint x="530" y="110" />
            </Array>
          </mxGeometry>
        </mxCell>
        <mxCell id="U3jiL1mCxAqjv2TIkaDy-35" value="User" style="swimlane;fontStyle=1;align=center;verticalAlign=top;childLayout=stackLayout;horizontal=1;startSize=26;horizontalStack=0;resizeParent=1;resizeParentMax=0;resizeLast=0;collapsible=1;marginBottom=0;" parent="1" vertex="1">
          <mxGeometry x="1080" y="340" width="279" height="202" as="geometry" />
        </mxCell>
        <mxCell id="U3jiL1mCxAqjv2TIkaDy-38" value="+UserId {get; set;}: int" style="text;strokeColor=none;fillColor=none;align=left;verticalAlign=top;spacingLeft=4;spacingRight=4;overflow=hidden;rotatable=0;points=[[0,0.5],[1,0.5]];portConstraint=eastwest;" parent="U3jiL1mCxAqjv2TIkaDy-35" vertex="1">
          <mxGeometry y="26" width="279" height="30" as="geometry" />
        </mxCell>
        <mxCell id="U3jiL1mCxAqjv2TIkaDy-36" value="+FirstName {get; set;}: string" style="text;strokeColor=none;fillColor=none;align=left;verticalAlign=top;spacingLeft=4;spacingRight=4;overflow=hidden;rotatable=0;points=[[0,0.5],[1,0.5]];portConstraint=eastwest;" parent="U3jiL1mCxAqjv2TIkaDy-35" vertex="1">
          <mxGeometry y="56" width="279" height="30" as="geometry" />
        </mxCell>
        <mxCell id="U3jiL1mCxAqjv2TIkaDy-37" value="+LastName {get; set;}: string" style="text;strokeColor=none;fillColor=none;align=left;verticalAlign=top;spacingLeft=4;spacingRight=4;overflow=hidden;rotatable=0;points=[[0,0.5],[1,0.5]];portConstraint=eastwest;" parent="U3jiL1mCxAqjv2TIkaDy-35" vertex="1">
          <mxGeometry y="86" width="279" height="30" as="geometry" />
        </mxCell>
        <mxCell id="U3jiL1mCxAqjv2TIkaDy-39" value="+Email {get; set;}: string" style="text;strokeColor=none;fillColor=none;align=left;verticalAlign=top;spacingLeft=4;spacingRight=4;overflow=hidden;rotatable=0;points=[[0,0.5],[1,0.5]];portConstraint=eastwest;" parent="U3jiL1mCxAqjv2TIkaDy-35" vertex="1">
          <mxGeometry y="116" width="279" height="30" as="geometry" />
        </mxCell>
        <mxCell id="YtIeAyyW_E95fq6XK8zX-14" value="+Password {get; set;}: string" style="text;strokeColor=none;fillColor=none;align=left;verticalAlign=top;spacingLeft=4;spacingRight=4;overflow=hidden;rotatable=0;points=[[0,0.5],[1,0.5]];portConstraint=eastwest;" parent="U3jiL1mCxAqjv2TIkaDy-35" vertex="1">
          <mxGeometry y="146" width="279" height="30" as="geometry" />
        </mxCell>
        <mxCell id="Un3Rf1JineqLG3wFpqzp-7" value="+AllBooking {get; set; }: List&lt;Booking&gt;" style="text;align=left;verticalAlign=top;spacingLeft=4;spacingRight=4;overflow=hidden;rotatable=0;points=[[0,0.5],[1,0.5]];portConstraint=eastwest;" parent="U3jiL1mCxAqjv2TIkaDy-35" vertex="1">
          <mxGeometry y="176" width="279" height="26" as="geometry" />
        </mxCell>
        <mxCell id="5SiUqiSRyqai7jgbCewg-2" style="edgeStyle=orthogonalEdgeStyle;rounded=0;orthogonalLoop=1;jettySize=auto;html=1;" parent="1" source="U3jiL1mCxAqjv2TIkaDy-54" target="U3jiL1mCxAqjv2TIkaDy-35" edge="1">
          <mxGeometry relative="1" as="geometry" />
        </mxCell>
        <mxCell id="U3jiL1mCxAqjv2TIkaDy-54" value="Review" style="swimlane;fontStyle=1;align=center;verticalAlign=top;childLayout=stackLayout;horizontal=1;startSize=26;horizontalStack=0;resizeParent=1;resizeLast=0;collapsible=1;marginBottom=0;rounded=0;shadow=0;strokeWidth=1;" parent="1" vertex="1">
          <mxGeometry x="1080" y="940" width="200" height="112" as="geometry">
            <mxRectangle x="340" y="380" width="170" height="26" as="alternateBounds" />
          </mxGeometry>
        </mxCell>
        <mxCell id="O_TKY6q4Ya665WPo8wHX-1" value="+User {get; set;}: User" style="text;align=left;verticalAlign=top;spacingLeft=4;spacingRight=4;overflow=hidden;rotatable=0;points=[[0,0.5],[1,0.5]];portConstraint=eastwest;" parent="U3jiL1mCxAqjv2TIkaDy-54" vertex="1">
          <mxGeometry y="26" width="200" height="26" as="geometry" />
        </mxCell>
        <mxCell id="U3jiL1mCxAqjv2TIkaDy-56" value="+Description {get; set;}: string" style="text;align=left;verticalAlign=top;spacingLeft=4;spacingRight=4;overflow=hidden;rotatable=0;points=[[0,0.5],[1,0.5]];portConstraint=eastwest;" parent="U3jiL1mCxAqjv2TIkaDy-54" vertex="1">
          <mxGeometry y="52" width="200" height="26" as="geometry" />
        </mxCell>
        <mxCell id="U3jiL1mCxAqjv2TIkaDy-57" value="+Rating {get; set;}: int" style="text;align=left;verticalAlign=top;spacingLeft=4;spacingRight=4;overflow=hidden;rotatable=0;points=[[0,0.5],[1,0.5]];portConstraint=eastwest;" parent="U3jiL1mCxAqjv2TIkaDy-54" vertex="1">
          <mxGeometry y="78" width="200" height="26" as="geometry" />
        </mxCell>
        <mxCell id="U3jiL1mCxAqjv2TIkaDy-58" value="" style="line;html=1;strokeWidth=1;align=left;verticalAlign=middle;spacingTop=-1;spacingLeft=3;spacingRight=3;rotatable=0;labelPosition=right;points=[];portConstraint=eastwest;" parent="U3jiL1mCxAqjv2TIkaDy-54" vertex="1">
          <mxGeometry y="104" width="200" height="8" as="geometry" />
        </mxCell>
        <mxCell id="U3jiL1mCxAqjv2TIkaDy-59" value="&lt;p style=&quot;margin:0px;margin-top:4px;text-align:center;&quot;&gt;&lt;i&gt;&amp;lt;&amp;lt;&lt;/i&gt;enumeration&lt;i&gt;&amp;gt;&amp;gt;&lt;/i&gt;&lt;br&gt;&lt;b&gt;Rooms&lt;/b&gt;&lt;/p&gt;&lt;hr size=&quot;1&quot;&gt;&lt;p style=&quot;margin:0px;margin-left:4px;&quot;&gt;SINGLE&lt;/p&gt;&lt;p style=&quot;margin:0px;margin-left:4px;&quot;&gt;NORMAL&lt;/p&gt;&lt;p style=&quot;margin:0px;margin-left:4px;&quot;&gt;FAMILY&lt;/p&gt;" style="verticalAlign=top;align=left;overflow=fill;fontSize=12;fontFamily=Helvetica;html=1;" parent="1" vertex="1">
          <mxGeometry x="670" y="1240" width="170" height="110" as="geometry" />
        </mxCell>
        <mxCell id="U3jiL1mCxAqjv2TIkaDy-60" value="&lt;p style=&quot;margin:0px;margin-top:4px;text-align:center;&quot;&gt;&lt;i&gt;&amp;lt;&amp;lt;&lt;/i&gt;enumeration&lt;i&gt;&amp;gt;&amp;gt;&lt;/i&gt;&lt;br&gt;&lt;b&gt;Seats&lt;/b&gt;&lt;/p&gt;&lt;hr size=&quot;1&quot;&gt;&lt;p style=&quot;margin:0px;margin-left:4px;&quot;&gt;ECONOMY&lt;br&gt;&lt;/p&gt;&lt;p style=&quot;margin:0px;margin-left:4px;&quot;&gt;&lt;span style=&quot;background-color: initial;&quot;&gt;PREMIUM ECONOMY&lt;/span&gt;&lt;/p&gt;&lt;p style=&quot;margin:0px;margin-left:4px;&quot;&gt;BUSINESS&lt;/p&gt;&lt;p style=&quot;margin:0px;margin-left:4px;&quot;&gt;FIRST CLASS&lt;/p&gt;" style="verticalAlign=top;align=left;overflow=fill;fontSize=12;fontFamily=Helvetica;html=1;" parent="1" vertex="1">
          <mxGeometry x="120" y="1170" width="170" height="120" as="geometry" />
        </mxCell>
        <mxCell id="_JRavNT2pa2kCFrqy6NS-2" style="edgeStyle=orthogonalEdgeStyle;rounded=0;orthogonalLoop=1;jettySize=auto;html=1;entryX=0.438;entryY=0.01;entryDx=0;entryDy=0;entryPerimeter=0;" parent="1" source="U3jiL1mCxAqjv2TIkaDy-67" target="U3jiL1mCxAqjv2TIkaDy-59" edge="1">
          <mxGeometry relative="1" as="geometry" />
        </mxCell>
        <mxCell id="5SiUqiSRyqai7jgbCewg-1" style="edgeStyle=orthogonalEdgeStyle;rounded=0;orthogonalLoop=1;jettySize=auto;html=1;" parent="1" source="U3jiL1mCxAqjv2TIkaDy-67" target="U3jiL1mCxAqjv2TIkaDy-54" edge="1">
          <mxGeometry relative="1" as="geometry" />
        </mxCell>
        <mxCell id="U3jiL1mCxAqjv2TIkaDy-67" value="Hotel" style="swimlane;fontStyle=1;align=center;verticalAlign=top;childLayout=stackLayout;horizontal=1;startSize=26;horizontalStack=0;resizeParent=1;resizeLast=0;collapsible=1;marginBottom=0;rounded=0;shadow=0;strokeWidth=1;" parent="1" vertex="1">
          <mxGeometry x="620" y="870" width="250" height="300" as="geometry">
            <mxRectangle x="340" y="380" width="170" height="26" as="alternateBounds" />
          </mxGeometry>
        </mxCell>
        <mxCell id="5SiUqiSRyqai7jgbCewg-5" value="+HotelId {get; set;}: int" style="text;align=left;verticalAlign=top;spacingLeft=4;spacingRight=4;overflow=hidden;rotatable=0;points=[[0,0.5],[1,0.5]];portConstraint=eastwest;" parent="U3jiL1mCxAqjv2TIkaDy-67" vertex="1">
          <mxGeometry y="26" width="250" height="26" as="geometry" />
        </mxCell>
        <mxCell id="5SiUqiSRyqai7jgbCewg-6" value="+Name {get; set;}: string" style="text;align=left;verticalAlign=top;spacingLeft=4;spacingRight=4;overflow=hidden;rotatable=0;points=[[0,0.5],[1,0.5]];portConstraint=eastwest;" parent="U3jiL1mCxAqjv2TIkaDy-67" vertex="1">
          <mxGeometry y="52" width="250" height="26" as="geometry" />
        </mxCell>
        <mxCell id="5SiUqiSRyqai7jgbCewg-7" value="+Address {get; set;}: string" style="text;align=left;verticalAlign=top;spacingLeft=4;spacingRight=4;overflow=hidden;rotatable=0;points=[[0,0.5],[1,0.5]];portConstraint=eastwest;" parent="U3jiL1mCxAqjv2TIkaDy-67" vertex="1">
          <mxGeometry y="78" width="250" height="26" as="geometry" />
        </mxCell>
        <mxCell id="5SiUqiSRyqai7jgbCewg-8" value="+City {get; set;}: string" style="text;align=left;verticalAlign=top;spacingLeft=4;spacingRight=4;overflow=hidden;rotatable=0;points=[[0,0.5],[1,0.5]];portConstraint=eastwest;" parent="U3jiL1mCxAqjv2TIkaDy-67" vertex="1">
          <mxGeometry y="104" width="250" height="26" as="geometry" />
        </mxCell>
        <mxCell id="5SiUqiSRyqai7jgbCewg-9" value="+Country {get; set;}: string" style="text;align=left;verticalAlign=top;spacingLeft=4;spacingRight=4;overflow=hidden;rotatable=0;points=[[0,0.5],[1,0.5]];portConstraint=eastwest;" parent="U3jiL1mCxAqjv2TIkaDy-67" vertex="1">
          <mxGeometry y="130" width="250" height="26" as="geometry" />
        </mxCell>
        <mxCell id="5SiUqiSRyqai7jgbCewg-10" value="+StarRating {get; set;}: int" style="text;align=left;verticalAlign=top;spacingLeft=4;spacingRight=4;overflow=hidden;rotatable=0;points=[[0,0.5],[1,0.5]];portConstraint=eastwest;" parent="U3jiL1mCxAqjv2TIkaDy-67" vertex="1">
          <mxGeometry y="156" width="250" height="26" as="geometry" />
        </mxCell>
        <mxCell id="5SiUqiSRyqai7jgbCewg-11" value="+PricePerNight {get; set; }: decimal" style="text;align=left;verticalAlign=top;spacingLeft=4;spacingRight=4;overflow=hidden;rotatable=0;points=[[0,0.5],[1,0.5]];portConstraint=eastwest;" parent="U3jiL1mCxAqjv2TIkaDy-67" vertex="1">
          <mxGeometry y="182" width="250" height="26" as="geometry" />
        </mxCell>
        <mxCell id="5SiUqiSRyqai7jgbCewg-12" value="+Room {get; set; }: Rooms" style="text;align=left;verticalAlign=top;spacingLeft=4;spacingRight=4;overflow=hidden;rotatable=0;points=[[0,0.5],[1,0.5]];portConstraint=eastwest;" parent="U3jiL1mCxAqjv2TIkaDy-67" vertex="1">
          <mxGeometry y="208" width="250" height="26" as="geometry" />
        </mxCell>
        <mxCell id="5SiUqiSRyqai7jgbCewg-13" value="+Reviews {get; set; }: List&lt;Review&gt;" style="text;align=left;verticalAlign=top;spacingLeft=4;spacingRight=4;overflow=hidden;rotatable=0;points=[[0,0.5],[1,0.5]];portConstraint=eastwest;" parent="U3jiL1mCxAqjv2TIkaDy-67" vertex="1">
          <mxGeometry y="234" width="250" height="26" as="geometry" />
        </mxCell>
        <mxCell id="_JRavNT2pa2kCFrqy6NS-1" style="edgeStyle=orthogonalEdgeStyle;rounded=0;orthogonalLoop=1;jettySize=auto;html=1;entryX=0.407;entryY=0.009;entryDx=0;entryDy=0;entryPerimeter=0;" parent="1" source="U3jiL1mCxAqjv2TIkaDy-77" target="U3jiL1mCxAqjv2TIkaDy-60" edge="1">
          <mxGeometry relative="1" as="geometry" />
        </mxCell>
        <mxCell id="U3jiL1mCxAqjv2TIkaDy-77" value="Flight" style="swimlane;fontStyle=1;align=center;verticalAlign=top;childLayout=stackLayout;horizontal=1;startSize=26;horizontalStack=0;resizeParent=1;resizeLast=0;collapsible=1;marginBottom=0;rounded=0;shadow=0;strokeWidth=1;" parent="1" vertex="1">
          <mxGeometry x="60" y="840" width="270" height="260" as="geometry">
            <mxRectangle x="130" y="380" width="160" height="26" as="alternateBounds" />
          </mxGeometry>
        </mxCell>
        <mxCell id="YtIeAyyW_E95fq6XK8zX-4" value="+FlightId {get; set;}: int" style="text;align=left;verticalAlign=top;spacingLeft=4;spacingRight=4;overflow=hidden;rotatable=0;points=[[0,0.5],[1,0.5]];portConstraint=eastwest;" parent="U3jiL1mCxAqjv2TIkaDy-77" vertex="1">
          <mxGeometry y="26" width="270" height="26" as="geometry" />
        </mxCell>
        <mxCell id="YtIeAyyW_E95fq6XK8zX-5" value="+Airline {get; set;}: string" style="text;align=left;verticalAlign=top;spacingLeft=4;spacingRight=4;overflow=hidden;rotatable=0;points=[[0,0.5],[1,0.5]];portConstraint=eastwest;" parent="U3jiL1mCxAqjv2TIkaDy-77" vertex="1">
          <mxGeometry y="52" width="270" height="26" as="geometry" />
        </mxCell>
        <mxCell id="YtIeAyyW_E95fq6XK8zX-6" value="+DepartureAirport {get; set;}: string" style="text;align=left;verticalAlign=top;spacingLeft=4;spacingRight=4;overflow=hidden;rotatable=0;points=[[0,0.5],[1,0.5]];portConstraint=eastwest;" parent="U3jiL1mCxAqjv2TIkaDy-77" vertex="1">
          <mxGeometry y="78" width="270" height="26" as="geometry" />
        </mxCell>
        <mxCell id="YtIeAyyW_E95fq6XK8zX-7" value="+ArrivalAirport {get; set;}: string" style="text;align=left;verticalAlign=top;spacingLeft=4;spacingRight=4;overflow=hidden;rotatable=0;points=[[0,0.5],[1,0.5]];portConstraint=eastwest;" parent="U3jiL1mCxAqjv2TIkaDy-77" vertex="1">
          <mxGeometry y="104" width="270" height="26" as="geometry" />
        </mxCell>
        <mxCell id="YtIeAyyW_E95fq6XK8zX-11" value="+DepartureTime { get; set; }:Â DateTime" style="text;align=left;verticalAlign=top;spacingLeft=4;spacingRight=4;overflow=hidden;rotatable=0;points=[[0,0.5],[1,0.5]];portConstraint=eastwest;" parent="U3jiL1mCxAqjv2TIkaDy-77" vertex="1">
          <mxGeometry y="130" width="270" height="26" as="geometry" />
        </mxCell>
        <mxCell id="YtIeAyyW_E95fq6XK8zX-12" value="&lt;span style=&quot;color: rgb(0, 0, 0); font-family: Helvetica; font-size: 12px; font-style: normal; font-variant-ligatures: normal; font-variant-caps: normal; font-weight: 400; letter-spacing: normal; orphans: 2; text-align: left; text-indent: 0px; text-transform: none; widows: 2; word-spacing: 0px; -webkit-text-stroke-width: 0px; background-color: rgb(251, 251, 251); text-decoration-thickness: initial; text-decoration-style: initial; text-decoration-color: initial; float: none; display: inline !important;&quot;&gt;+ArrivalTime { get; set; }:&amp;nbsp;DateTime&lt;/span&gt;" style="text;whiteSpace=wrap;html=1;" parent="U3jiL1mCxAqjv2TIkaDy-77" vertex="1">
          <mxGeometry y="156" width="270" height="24" as="geometry" />
        </mxCell>
        <mxCell id="YtIeAyyW_E95fq6XK8zX-8" value="+Price {get; set;}: decimal" style="text;align=left;verticalAlign=top;spacingLeft=4;spacingRight=4;overflow=hidden;rotatable=0;points=[[0,0.5],[1,0.5]];portConstraint=eastwest;" parent="U3jiL1mCxAqjv2TIkaDy-77" vertex="1">
          <mxGeometry y="180" width="270" height="26" as="geometry" />
        </mxCell>
        <mxCell id="YtIeAyyW_E95fq6XK8zX-13" value="+Seat {get; set;}: Seats" style="text;align=left;verticalAlign=top;spacingLeft=4;spacingRight=4;overflow=hidden;rotatable=0;points=[[0,0.5],[1,0.5]];portConstraint=eastwest;" parent="U3jiL1mCxAqjv2TIkaDy-77" vertex="1">
          <mxGeometry y="206" width="270" height="26" as="geometry" />
        </mxCell>
        <mxCell id="_JRavNT2pa2kCFrqy6NS-3" value="&lt;font style=&quot;font-size: 36px;&quot;&gt;Domain&lt;/font&gt;" style="text;html=1;strokeColor=#6c8ebf;fillColor=#dae8fc;align=center;verticalAlign=middle;whiteSpace=wrap;rounded=0;" parent="1" vertex="1">
          <mxGeometry x="150" y="20" width="620" height="80" as="geometry" />
        </mxCell>
        <mxCell id="_JRavNT2pa2kCFrqy6NS-4" value="&lt;font style=&quot;font-size: 36px;&quot;&gt;DAL&lt;/font&gt;" style="text;html=1;strokeColor=#6c8ebf;fillColor=#dae8fc;align=center;verticalAlign=middle;whiteSpace=wrap;rounded=0;" parent="1" vertex="1">
          <mxGeometry x="1650" y="20" width="620" height="80" as="geometry" />
        </mxCell>
        <mxCell id="_JRavNT2pa2kCFrqy6NS-5" value="&lt;font style=&quot;font-size: 36px;&quot;&gt;BLL&lt;/font&gt;" style="text;html=1;strokeColor=#6c8ebf;fillColor=#dae8fc;align=center;verticalAlign=middle;whiteSpace=wrap;rounded=0;" parent="1" vertex="1">
          <mxGeometry x="1675" y="1010" width="620" height="80" as="geometry" />
        </mxCell>
        <mxCell id="cSOoN-FuHc9pU1KcfGhs-1" value="*" style="text;html=1;strokeColor=none;fillColor=none;align=center;verticalAlign=middle;whiteSpace=wrap;rounded=0;fontSize=30;fontStyle=1" parent="1" vertex="1">
          <mxGeometry x="970" y="980" width="60" height="20" as="geometry" />
        </mxCell>
        <mxCell id="1bnDyn_ZmXykWUgW0NKX-1" value="1" style="text;html=1;strokeColor=none;fillColor=none;align=center;verticalAlign=middle;whiteSpace=wrap;rounded=0;fontSize=15;fontStyle=1" parent="1" vertex="1">
          <mxGeometry x="1160" y="810" width="60" height="20" as="geometry" />
        </mxCell>
        <mxCell id="1bnDyn_ZmXykWUgW0NKX-2" value="1" style="text;html=1;strokeColor=none;fillColor=none;align=center;verticalAlign=middle;whiteSpace=wrap;rounded=0;fontSize=15;fontStyle=1" parent="1" vertex="1">
          <mxGeometry x="760" y="830" width="60" height="20" as="geometry" />
        </mxCell>
        <mxCell id="1bnDyn_ZmXykWUgW0NKX-3" value="1" style="text;html=1;strokeColor=none;fillColor=none;align=center;verticalAlign=middle;whiteSpace=wrap;rounded=0;fontSize=15;fontStyle=1" parent="1" vertex="1">
          <mxGeometry x="175" y="800" width="60" height="20" as="geometry" />
        </mxCell>
        <mxCell id="Un3Rf1JineqLG3wFpqzp-3" value="1" style="text;html=1;strokeColor=none;fillColor=none;align=center;verticalAlign=middle;whiteSpace=wrap;rounded=0;fontSize=15;fontStyle=1" parent="1" vertex="1">
          <mxGeometry x="725" y="220" width="60" height="20" as="geometry" />
        </mxCell>
        <mxCell id="Un3Rf1JineqLG3wFpqzp-4" value="*" style="text;html=1;strokeColor=none;fillColor=none;align=center;verticalAlign=middle;whiteSpace=wrap;rounded=0;fontSize=30;fontStyle=1" parent="1" vertex="1">
          <mxGeometry x="1310" y="300" width="60" height="20" as="geometry" />
        </mxCell>
        <mxCell id="42f9tLdX2_uQNIohEWDA-1" value="1" style="text;html=1;strokeColor=none;fillColor=none;align=center;verticalAlign=middle;whiteSpace=wrap;rounded=0;fontSize=15;fontStyle=1" parent="1" vertex="1">
          <mxGeometry x="735" y="1210" width="60" height="20" as="geometry" />
        </mxCell>
        <mxCell id="42f9tLdX2_uQNIohEWDA-2" value="1" style="text;html=1;strokeColor=none;fillColor=none;align=center;verticalAlign=middle;whiteSpace=wrap;rounded=0;fontSize=15;fontStyle=1" parent="1" vertex="1">
          <mxGeometry x="200" y="1130" width="60" height="20" as="geometry" />
        </mxCell>
        <mxCell id="oAJEgzpZieZ_s_QY384C-2" value="BookingRepo" style="swimlane;fontStyle=1;align=center;verticalAlign=top;childLayout=stackLayout;horizontal=1;startSize=26;horizontalStack=0;resizeParent=1;resizeLast=0;collapsible=1;marginBottom=0;rounded=0;shadow=0;strokeWidth=1;" parent="1" vertex="1">
          <mxGeometry x="1610" y="140" width="280" height="200" as="geometry">
            <mxRectangle x="230" y="140" width="160" height="26" as="alternateBounds" />
          </mxGeometry>
        </mxCell>
        <mxCell id="O_TKY6q4Ya665WPo8wHX-4" value="+GetAllBookings(): List&lt;Booking&gt;" style="text;strokeColor=none;fillColor=none;align=left;verticalAlign=top;spacingLeft=4;spacingRight=4;overflow=hidden;rotatable=0;points=[[0,0.5],[1,0.5]];portConstraint=eastwest;" parent="oAJEgzpZieZ_s_QY384C-2" vertex="1">
          <mxGeometry y="26" width="280" height="30" as="geometry" />
        </mxCell>
        <mxCell id="O_TKY6q4Ya665WPo8wHX-5" value="+GetBookingById(int bookingId): Booking" style="text;strokeColor=none;fillColor=none;align=left;verticalAlign=top;spacingLeft=4;spacingRight=4;overflow=hidden;rotatable=0;points=[[0,0.5],[1,0.5]];portConstraint=eastwest;" parent="oAJEgzpZieZ_s_QY384C-2" vertex="1">
          <mxGeometry y="56" width="280" height="30" as="geometry" />
        </mxCell>
        <mxCell id="O_TKY6q4Ya665WPo8wHX-6" value="+AddBooking(Booking booking):Â  void" style="text;strokeColor=none;fillColor=none;align=left;verticalAlign=top;spacingLeft=4;spacingRight=4;overflow=hidden;rotatable=0;points=[[0,0.5],[1,0.5]];portConstraint=eastwest;" parent="oAJEgzpZieZ_s_QY384C-2" vertex="1">
          <mxGeometry y="86" width="280" height="30" as="geometry" />
        </mxCell>
        <mxCell id="O_TKY6q4Ya665WPo8wHX-7" value="+UpdateBooking(Booking booking): void" style="text;strokeColor=none;fillColor=none;align=left;verticalAlign=top;spacingLeft=4;spacingRight=4;overflow=hidden;rotatable=0;points=[[0,0.5],[1,0.5]];portConstraint=eastwest;" parent="oAJEgzpZieZ_s_QY384C-2" vertex="1">
          <mxGeometry y="116" width="280" height="30" as="geometry" />
        </mxCell>
        <mxCell id="O_TKY6q4Ya665WPo8wHX-8" value="+DeleteBooking(int bookingId): void" style="text;strokeColor=none;fillColor=none;align=left;verticalAlign=top;spacingLeft=4;spacingRight=4;overflow=hidden;rotatable=0;points=[[0,0.5],[1,0.5]];portConstraint=eastwest;" parent="oAJEgzpZieZ_s_QY384C-2" vertex="1">
          <mxGeometry y="146" width="280" height="30" as="geometry" />
        </mxCell>
        <mxCell id="oAJEgzpZieZ_s_QY384C-25" value="UserRepo" style="swimlane;fontStyle=1;align=center;verticalAlign=top;childLayout=stackLayout;horizontal=1;startSize=26;horizontalStack=0;resizeParent=1;resizeParentMax=0;resizeLast=0;collapsible=1;marginBottom=0;" parent="1" vertex="1">
          <mxGeometry x="1970" y="140" width="279" height="176" as="geometry" />
        </mxCell>
        <mxCell id="O_TKY6q4Ya665WPo8wHX-11" value="+GetAllUsers(): List&lt;User&gt;" style="text;strokeColor=none;fillColor=none;align=left;verticalAlign=top;spacingLeft=4;spacingRight=4;overflow=hidden;rotatable=0;points=[[0,0.5],[1,0.5]];portConstraint=eastwest;" parent="oAJEgzpZieZ_s_QY384C-25" vertex="1">
          <mxGeometry y="26" width="279" height="30" as="geometry" />
        </mxCell>
        <mxCell id="O_TKY6q4Ya665WPo8wHX-23" value="+GetUserById(int userId): User" style="text;strokeColor=none;fillColor=none;align=left;verticalAlign=top;spacingLeft=4;spacingRight=4;overflow=hidden;rotatable=0;points=[[0,0.5],[1,0.5]];portConstraint=eastwest;" parent="oAJEgzpZieZ_s_QY384C-25" vertex="1">
          <mxGeometry y="56" width="279" height="30" as="geometry" />
        </mxCell>
        <mxCell id="DQgSexUhoDO7YtyzrvTM-14" value="+AddUser(User user):Â  void" style="text;strokeColor=none;fillColor=none;align=left;verticalAlign=top;spacingLeft=4;spacingRight=4;overflow=hidden;rotatable=0;points=[[0,0.5],[1,0.5]];portConstraint=eastwest;" parent="oAJEgzpZieZ_s_QY384C-25" vertex="1">
          <mxGeometry y="86" width="279" height="30" as="geometry" />
        </mxCell>
        <mxCell id="DQgSexUhoDO7YtyzrvTM-5" value="+UpdateUser(User user): void" style="text;strokeColor=none;fillColor=none;align=left;verticalAlign=top;spacingLeft=4;spacingRight=4;overflow=hidden;rotatable=0;points=[[0,0.5],[1,0.5]];portConstraint=eastwest;" parent="oAJEgzpZieZ_s_QY384C-25" vertex="1">
          <mxGeometry y="116" width="279" height="30" as="geometry" />
        </mxCell>
        <mxCell id="DQgSexUhoDO7YtyzrvTM-15" value="+DeleteUser(int userId): void" style="text;strokeColor=none;fillColor=none;align=left;verticalAlign=top;spacingLeft=4;spacingRight=4;overflow=hidden;rotatable=0;points=[[0,0.5],[1,0.5]];portConstraint=eastwest;" parent="oAJEgzpZieZ_s_QY384C-25" vertex="1">
          <mxGeometry y="146" width="279" height="30" as="geometry" />
        </mxCell>
        <mxCell id="oAJEgzpZieZ_s_QY384C-33" value="ReviewRepo" style="swimlane;fontStyle=1;align=center;verticalAlign=top;childLayout=stackLayout;horizontal=1;startSize=26;horizontalStack=0;resizeParent=1;resizeLast=0;collapsible=1;marginBottom=0;rounded=0;shadow=0;strokeWidth=1;" parent="1" vertex="1">
          <mxGeometry x="2280" y="140" width="320" height="146" as="geometry">
            <mxRectangle x="340" y="380" width="170" height="26" as="alternateBounds" />
          </mxGeometry>
        </mxCell>
        <mxCell id="DQgSexUhoDO7YtyzrvTM-22" value="+GetAllReviewsById(int hotelId): List&lt;Review&gt;" style="text;strokeColor=none;fillColor=none;align=left;verticalAlign=top;spacingLeft=4;spacingRight=4;overflow=hidden;rotatable=0;points=[[0,0.5],[1,0.5]];portConstraint=eastwest;" parent="oAJEgzpZieZ_s_QY384C-33" vertex="1">
          <mxGeometry y="26" width="320" height="30" as="geometry" />
        </mxCell>
        <mxCell id="DQgSexUhoDO7YtyzrvTM-23" value="+AddReview(int userId, int hotelId):Â  void" style="text;strokeColor=none;fillColor=none;align=left;verticalAlign=top;spacingLeft=4;spacingRight=4;overflow=hidden;rotatable=0;points=[[0,0.5],[1,0.5]];portConstraint=eastwest;" parent="oAJEgzpZieZ_s_QY384C-33" vertex="1">
          <mxGeometry y="56" width="320" height="30" as="geometry" />
        </mxCell>
        <mxCell id="DQgSexUhoDO7YtyzrvTM-25" value="+DeleteReview(int userId): void" style="text;strokeColor=none;fillColor=none;align=left;verticalAlign=top;spacingLeft=4;spacingRight=4;overflow=hidden;rotatable=0;points=[[0,0.5],[1,0.5]];portConstraint=eastwest;" parent="oAJEgzpZieZ_s_QY384C-33" vertex="1">
          <mxGeometry y="86" width="320" height="30" as="geometry" />
        </mxCell>
        <mxCell id="oAJEgzpZieZ_s_QY384C-42" value="HotelBookingRepo" style="swimlane;fontStyle=1;align=center;verticalAlign=top;childLayout=stackLayout;horizontal=1;startSize=26;horizontalStack=0;resizeParent=1;resizeLast=0;collapsible=1;marginBottom=0;rounded=0;shadow=0;strokeWidth=1;" parent="1" vertex="1">
          <mxGeometry x="1970" y="390" width="310" height="195" as="geometry">
            <mxRectangle x="340" y="380" width="170" height="26" as="alternateBounds" />
          </mxGeometry>
        </mxCell>
        <mxCell id="O_TKY6q4Ya665WPo8wHX-10" value="+GetAllHotelBookings(): List&lt;HotelBooking&gt;" style="text;strokeColor=none;fillColor=none;align=left;verticalAlign=top;spacingLeft=4;spacingRight=4;overflow=hidden;rotatable=0;points=[[0,0.5],[1,0.5]];portConstraint=eastwest;" parent="oAJEgzpZieZ_s_QY384C-42" vertex="1">
          <mxGeometry y="26" width="310" height="30" as="geometry" />
        </mxCell>
        <mxCell id="DQgSexUhoDO7YtyzrvTM-1" value="+GetHotelBookingById(int bookingId): HotelBooking" style="text;strokeColor=none;fillColor=none;align=left;verticalAlign=top;spacingLeft=4;spacingRight=4;overflow=hidden;rotatable=0;points=[[0,0.5],[1,0.5]];portConstraint=eastwest;" parent="oAJEgzpZieZ_s_QY384C-42" vertex="1">
          <mxGeometry y="56" width="310" height="30" as="geometry" />
        </mxCell>
        <mxCell id="DQgSexUhoDO7YtyzrvTM-2" value="+AddHotelBooking(HotelBooking booking):Â  void" style="text;strokeColor=none;fillColor=none;align=left;verticalAlign=top;spacingLeft=4;spacingRight=4;overflow=hidden;rotatable=0;points=[[0,0.5],[1,0.5]];portConstraint=eastwest;" parent="oAJEgzpZieZ_s_QY384C-42" vertex="1">
          <mxGeometry y="86" width="310" height="30" as="geometry" />
        </mxCell>
        <mxCell id="DQgSexUhoDO7YtyzrvTM-4" value="+UpdateHotelBooking(HotelBooking booking): void" style="text;strokeColor=none;fillColor=none;align=left;verticalAlign=top;spacingLeft=4;spacingRight=4;overflow=hidden;rotatable=0;points=[[0,0.5],[1,0.5]];portConstraint=eastwest;" parent="oAJEgzpZieZ_s_QY384C-42" vertex="1">
          <mxGeometry y="116" width="310" height="30" as="geometry" />
        </mxCell>
        <mxCell id="DQgSexUhoDO7YtyzrvTM-3" value="+DeleteHotelBooking(int bookingId): void" style="text;strokeColor=none;fillColor=none;align=left;verticalAlign=top;spacingLeft=4;spacingRight=4;overflow=hidden;rotatable=0;points=[[0,0.5],[1,0.5]];portConstraint=eastwest;" parent="oAJEgzpZieZ_s_QY384C-42" vertex="1">
          <mxGeometry y="146" width="310" height="30" as="geometry" />
        </mxCell>
        <mxCell id="oAJEgzpZieZ_s_QY384C-53" value="FlightBookingRepo" style="swimlane;fontStyle=1;align=center;verticalAlign=top;childLayout=stackLayout;horizontal=1;startSize=26;horizontalStack=0;resizeParent=1;resizeLast=0;collapsible=1;marginBottom=0;rounded=0;shadow=0;strokeWidth=1;" parent="1" vertex="1">
          <mxGeometry x="1610" y="390" width="300" height="200" as="geometry">
            <mxRectangle x="130" y="380" width="160" height="26" as="alternateBounds" />
          </mxGeometry>
        </mxCell>
        <mxCell id="O_TKY6q4Ya665WPo8wHX-9" value="+GetAllFlightBookings(): List&lt;FlightBooking&gt;" style="text;strokeColor=none;fillColor=none;align=left;verticalAlign=top;spacingLeft=4;spacingRight=4;overflow=hidden;rotatable=0;points=[[0,0.5],[1,0.5]];portConstraint=eastwest;" parent="oAJEgzpZieZ_s_QY384C-53" vertex="1">
          <mxGeometry y="26" width="300" height="30" as="geometry" />
        </mxCell>
        <mxCell id="O_TKY6q4Ya665WPo8wHX-18" value="+GetFlightBookingById(int bookingId): FlightBooking" style="text;strokeColor=none;fillColor=none;align=left;verticalAlign=top;spacingLeft=4;spacingRight=4;overflow=hidden;rotatable=0;points=[[0,0.5],[1,0.5]];portConstraint=eastwest;" parent="oAJEgzpZieZ_s_QY384C-53" vertex="1">
          <mxGeometry y="56" width="300" height="30" as="geometry" />
        </mxCell>
        <mxCell id="O_TKY6q4Ya665WPo8wHX-19" value="+AddFlightBooking(FlightBooking booking):Â  void" style="text;strokeColor=none;fillColor=none;align=left;verticalAlign=top;spacingLeft=4;spacingRight=4;overflow=hidden;rotatable=0;points=[[0,0.5],[1,0.5]];portConstraint=eastwest;" parent="oAJEgzpZieZ_s_QY384C-53" vertex="1">
          <mxGeometry y="86" width="300" height="30" as="geometry" />
        </mxCell>
        <mxCell id="O_TKY6q4Ya665WPo8wHX-21" value="+UpdateFlightBooking(FlightBooking booking): void" style="text;strokeColor=none;fillColor=none;align=left;verticalAlign=top;spacingLeft=4;spacingRight=4;overflow=hidden;rotatable=0;points=[[0,0.5],[1,0.5]];portConstraint=eastwest;" parent="oAJEgzpZieZ_s_QY384C-53" vertex="1">
          <mxGeometry y="116" width="300" height="30" as="geometry" />
        </mxCell>
        <mxCell id="O_TKY6q4Ya665WPo8wHX-22" value="+DeleteFlightBooking(int bookingId): void" style="text;strokeColor=none;fillColor=none;align=left;verticalAlign=top;spacingLeft=4;spacingRight=4;overflow=hidden;rotatable=0;points=[[0,0.5],[1,0.5]];portConstraint=eastwest;" parent="oAJEgzpZieZ_s_QY384C-53" vertex="1">
          <mxGeometry y="146" width="300" height="30" as="geometry" />
        </mxCell>
        <mxCell id="DQgSexUhoDO7YtyzrvTM-8" value="FlightRepo" style="swimlane;fontStyle=1;align=center;verticalAlign=top;childLayout=stackLayout;horizontal=1;startSize=26;horizontalStack=0;resizeParent=1;resizeLast=0;collapsible=1;marginBottom=0;rounded=0;shadow=0;strokeWidth=1;" parent="1" vertex="1">
          <mxGeometry x="1610" y="615" width="300" height="200" as="geometry">
            <mxRectangle x="130" y="380" width="160" height="26" as="alternateBounds" />
          </mxGeometry>
        </mxCell>
        <mxCell id="O_TKY6q4Ya665WPo8wHX-17" value="+GetAllFlights(): List&lt;Flight&gt;" style="text;strokeColor=none;fillColor=none;align=left;verticalAlign=top;spacingLeft=4;spacingRight=4;overflow=hidden;rotatable=0;points=[[0,0.5],[1,0.5]];portConstraint=eastwest;" parent="DQgSexUhoDO7YtyzrvTM-8" vertex="1">
          <mxGeometry y="26" width="300" height="30" as="geometry" />
        </mxCell>
        <mxCell id="DQgSexUhoDO7YtyzrvTM-10" value="+GetFlightById(int flightId): Flight" style="text;strokeColor=none;fillColor=none;align=left;verticalAlign=top;spacingLeft=4;spacingRight=4;overflow=hidden;rotatable=0;points=[[0,0.5],[1,0.5]];portConstraint=eastwest;" parent="DQgSexUhoDO7YtyzrvTM-8" vertex="1">
          <mxGeometry y="56" width="300" height="30" as="geometry" />
        </mxCell>
        <mxCell id="DQgSexUhoDO7YtyzrvTM-11" value="+AddFlight(Flight flight):Â  void" style="text;strokeColor=none;fillColor=none;align=left;verticalAlign=top;spacingLeft=4;spacingRight=4;overflow=hidden;rotatable=0;points=[[0,0.5],[1,0.5]];portConstraint=eastwest;" parent="DQgSexUhoDO7YtyzrvTM-8" vertex="1">
          <mxGeometry y="86" width="300" height="30" as="geometry" />
        </mxCell>
        <mxCell id="DQgSexUhoDO7YtyzrvTM-12" value="+UpdateFlight(Flight flight): void" style="text;strokeColor=none;fillColor=none;align=left;verticalAlign=top;spacingLeft=4;spacingRight=4;overflow=hidden;rotatable=0;points=[[0,0.5],[1,0.5]];portConstraint=eastwest;" parent="DQgSexUhoDO7YtyzrvTM-8" vertex="1">
          <mxGeometry y="116" width="300" height="30" as="geometry" />
        </mxCell>
        <mxCell id="DQgSexUhoDO7YtyzrvTM-13" value="+DeleteFlight(int flightId): void" style="text;strokeColor=none;fillColor=none;align=left;verticalAlign=top;spacingLeft=4;spacingRight=4;overflow=hidden;rotatable=0;points=[[0,0.5],[1,0.5]];portConstraint=eastwest;" parent="DQgSexUhoDO7YtyzrvTM-8" vertex="1">
          <mxGeometry y="146" width="300" height="30" as="geometry" />
        </mxCell>
        <mxCell id="DQgSexUhoDO7YtyzrvTM-16" value="HotelRepo" style="swimlane;fontStyle=1;align=center;verticalAlign=top;childLayout=stackLayout;horizontal=1;startSize=26;horizontalStack=0;resizeParent=1;resizeLast=0;collapsible=1;marginBottom=0;rounded=0;shadow=0;strokeWidth=1;" parent="1" vertex="1">
          <mxGeometry x="1970" y="620" width="310" height="190" as="geometry">
            <mxRectangle x="340" y="380" width="170" height="26" as="alternateBounds" />
          </mxGeometry>
        </mxCell>
        <mxCell id="DQgSexUhoDO7YtyzrvTM-17" value="+GetAllHotels(): List&lt;Hotel&gt;" style="text;strokeColor=none;fillColor=none;align=left;verticalAlign=top;spacingLeft=4;spacingRight=4;overflow=hidden;rotatable=0;points=[[0,0.5],[1,0.5]];portConstraint=eastwest;" parent="DQgSexUhoDO7YtyzrvTM-16" vertex="1">
          <mxGeometry y="26" width="310" height="30" as="geometry" />
        </mxCell>
        <mxCell id="DQgSexUhoDO7YtyzrvTM-18" value="+GetHotelById(int hotelId): Hotel" style="text;strokeColor=none;fillColor=none;align=left;verticalAlign=top;spacingLeft=4;spacingRight=4;overflow=hidden;rotatable=0;points=[[0,0.5],[1,0.5]];portConstraint=eastwest;" parent="DQgSexUhoDO7YtyzrvTM-16" vertex="1">
          <mxGeometry y="56" width="310" height="30" as="geometry" />
        </mxCell>
        <mxCell id="DQgSexUhoDO7YtyzrvTM-19" value="+AddHotel(Hotel hotel):Â  void" style="text;strokeColor=none;fillColor=none;align=left;verticalAlign=top;spacingLeft=4;spacingRight=4;overflow=hidden;rotatable=0;points=[[0,0.5],[1,0.5]];portConstraint=eastwest;" parent="DQgSexUhoDO7YtyzrvTM-16" vertex="1">
          <mxGeometry y="86" width="310" height="30" as="geometry" />
        </mxCell>
        <mxCell id="DQgSexUhoDO7YtyzrvTM-20" value="+UpdateHotel(Hotel hotel): void" style="text;strokeColor=none;fillColor=none;align=left;verticalAlign=top;spacingLeft=4;spacingRight=4;overflow=hidden;rotatable=0;points=[[0,0.5],[1,0.5]];portConstraint=eastwest;" parent="DQgSexUhoDO7YtyzrvTM-16" vertex="1">
          <mxGeometry y="116" width="310" height="30" as="geometry" />
        </mxCell>
        <mxCell id="DQgSexUhoDO7YtyzrvTM-21" value="+DeleteHotel(int hotelId): void" style="text;strokeColor=none;fillColor=none;align=left;verticalAlign=top;spacingLeft=4;spacingRight=4;overflow=hidden;rotatable=0;points=[[0,0.5],[1,0.5]];portConstraint=eastwest;" parent="DQgSexUhoDO7YtyzrvTM-16" vertex="1">
          <mxGeometry y="146" width="310" height="30" as="geometry" />
        </mxCell>
        <mxCell id="DQgSexUhoDO7YtyzrvTM-100" value="BookingLogic" style="swimlane;fontStyle=3;align=center;verticalAlign=top;childLayout=stackLayout;horizontal=1;startSize=26;horizontalStack=0;resizeParent=1;resizeLast=0;collapsible=1;marginBottom=0;rounded=0;shadow=0;strokeWidth=1;" parent="1" vertex="1">
          <mxGeometry x="1570" y="1110" width="280" height="206" as="geometry">
            <mxRectangle x="230" y="140" width="160" height="26" as="alternateBounds" />
          </mxGeometry>
        </mxCell>
        <mxCell id="DQgSexUhoDO7YtyzrvTM-101" value="+GetAllBookings(): List&lt;Booking&gt;" style="text;strokeColor=none;fillColor=none;align=left;verticalAlign=top;spacingLeft=4;spacingRight=4;overflow=hidden;rotatable=0;points=[[0,0.5],[1,0.5]];portConstraint=eastwest;" parent="DQgSexUhoDO7YtyzrvTM-100" vertex="1">
          <mxGeometry y="26" width="280" height="30" as="geometry" />
        </mxCell>
        <mxCell id="DQgSexUhoDO7YtyzrvTM-102" value="+GetBookingById(int bookingId): Booking" style="text;strokeColor=none;fillColor=none;align=left;verticalAlign=top;spacingLeft=4;spacingRight=4;overflow=hidden;rotatable=0;points=[[0,0.5],[1,0.5]];portConstraint=eastwest;" parent="DQgSexUhoDO7YtyzrvTM-100" vertex="1">
          <mxGeometry y="56" width="280" height="30" as="geometry" />
        </mxCell>
        <mxCell id="DQgSexUhoDO7YtyzrvTM-103" value="+CreateBooking(Booking booking):Â  void" style="text;strokeColor=none;fillColor=none;align=left;verticalAlign=top;spacingLeft=4;spacingRight=4;overflow=hidden;rotatable=0;points=[[0,0.5],[1,0.5]];portConstraint=eastwest;" parent="DQgSexUhoDO7YtyzrvTM-100" vertex="1">
          <mxGeometry y="86" width="280" height="30" as="geometry" />
        </mxCell>
        <mxCell id="DQgSexUhoDO7YtyzrvTM-105" value="+CancellBooking(int bookingId): void" style="text;strokeColor=none;fillColor=none;align=left;verticalAlign=top;spacingLeft=4;spacingRight=4;overflow=hidden;rotatable=0;points=[[0,0.5],[1,0.5]];portConstraint=eastwest;" parent="DQgSexUhoDO7YtyzrvTM-100" vertex="1">
          <mxGeometry y="116" width="280" height="30" as="geometry" />
        </mxCell>
        <mxCell id="F7kbLG5JI39RCB1sPVfV-5" value="+CalculateTotalPrice(): decimal" style="text;strokeColor=none;fillColor=none;align=left;verticalAlign=top;spacingLeft=4;spacingRight=4;overflow=hidden;rotatable=0;points=[[0,0.5],[1,0.5]];portConstraint=eastwest;" parent="DQgSexUhoDO7YtyzrvTM-100" vertex="1">
          <mxGeometry y="146" width="280" height="30" as="geometry" />
        </mxCell>
        <mxCell id="DQgSexUhoDO7YtyzrvTM-106" value="UserLogic" style="swimlane;fontStyle=1;align=center;verticalAlign=top;childLayout=stackLayout;horizontal=1;startSize=26;horizontalStack=0;resizeParent=1;resizeParentMax=0;resizeLast=0;collapsible=1;marginBottom=0;" parent="1" vertex="1">
          <mxGeometry x="2120" y="1114" width="279" height="206" as="geometry" />
        </mxCell>
        <mxCell id="DQgSexUhoDO7YtyzrvTM-107" value="+GetAllUsers(): List&lt;User&gt;" style="text;strokeColor=none;fillColor=none;align=left;verticalAlign=top;spacingLeft=4;spacingRight=4;overflow=hidden;rotatable=0;points=[[0,0.5],[1,0.5]];portConstraint=eastwest;" parent="DQgSexUhoDO7YtyzrvTM-106" vertex="1">
          <mxGeometry y="26" width="279" height="30" as="geometry" />
        </mxCell>
        <mxCell id="DQgSexUhoDO7YtyzrvTM-108" value="+GetUserById(int userId): User" style="text;strokeColor=none;fillColor=none;align=left;verticalAlign=top;spacingLeft=4;spacingRight=4;overflow=hidden;rotatable=0;points=[[0,0.5],[1,0.5]];portConstraint=eastwest;" parent="DQgSexUhoDO7YtyzrvTM-106" vertex="1">
          <mxGeometry y="56" width="279" height="30" as="geometry" />
        </mxCell>
        <mxCell id="DQgSexUhoDO7YtyzrvTM-109" value="+RegisterUser(User user)" style="text;strokeColor=none;fillColor=none;align=left;verticalAlign=top;spacingLeft=4;spacingRight=4;overflow=hidden;rotatable=0;points=[[0,0.5],[1,0.5]];portConstraint=eastwest;" parent="DQgSexUhoDO7YtyzrvTM-106" vertex="1">
          <mxGeometry y="86" width="279" height="30" as="geometry" />
        </mxCell>
        <mxCell id="DQgSexUhoDO7YtyzrvTM-110" value="+UpdateInformation(User user): void" style="text;strokeColor=none;fillColor=none;align=left;verticalAlign=top;spacingLeft=4;spacingRight=4;overflow=hidden;rotatable=0;points=[[0,0.5],[1,0.5]];portConstraint=eastwest;" parent="DQgSexUhoDO7YtyzrvTM-106" vertex="1">
          <mxGeometry y="116" width="279" height="30" as="geometry" />
        </mxCell>
        <mxCell id="DQgSexUhoDO7YtyzrvTM-114" value="+AddReview(int userId, int hotelId):Â  void" style="text;strokeColor=none;fillColor=none;align=left;verticalAlign=top;spacingLeft=4;spacingRight=4;overflow=hidden;rotatable=0;points=[[0,0.5],[1,0.5]];portConstraint=eastwest;" parent="DQgSexUhoDO7YtyzrvTM-106" vertex="1">
          <mxGeometry y="146" width="279" height="30" as="geometry" />
        </mxCell>
        <mxCell id="DQgSexUhoDO7YtyzrvTM-115" value="+DeleteReview(int userId): void" style="text;strokeColor=none;fillColor=none;align=left;verticalAlign=top;spacingLeft=4;spacingRight=4;overflow=hidden;rotatable=0;points=[[0,0.5],[1,0.5]];portConstraint=eastwest;" parent="DQgSexUhoDO7YtyzrvTM-106" vertex="1">
          <mxGeometry y="176" width="279" height="30" as="geometry" />
        </mxCell>
        <mxCell id="DQgSexUhoDO7YtyzrvTM-116" value="HotelBookingLogic" style="swimlane;fontStyle=1;align=center;verticalAlign=top;childLayout=stackLayout;horizontal=1;startSize=26;horizontalStack=0;resizeParent=1;resizeLast=0;collapsible=1;marginBottom=0;rounded=0;shadow=0;strokeWidth=1;" parent="1" vertex="1">
          <mxGeometry x="1830" y="1510" width="310" height="206" as="geometry">
            <mxRectangle x="340" y="380" width="170" height="26" as="alternateBounds" />
          </mxGeometry>
        </mxCell>
        <mxCell id="DQgSexUhoDO7YtyzrvTM-117" value="+GetAllHotelBookings(): List&lt;HotelBooking&gt;" style="text;strokeColor=none;fillColor=none;align=left;verticalAlign=top;spacingLeft=4;spacingRight=4;overflow=hidden;rotatable=0;points=[[0,0.5],[1,0.5]];portConstraint=eastwest;" parent="DQgSexUhoDO7YtyzrvTM-116" vertex="1">
          <mxGeometry y="26" width="310" height="30" as="geometry" />
        </mxCell>
        <mxCell id="DQgSexUhoDO7YtyzrvTM-118" value="+GetHotelBookingById(int bookingId): HotelBooking" style="text;strokeColor=none;fillColor=none;align=left;verticalAlign=top;spacingLeft=4;spacingRight=4;overflow=hidden;rotatable=0;points=[[0,0.5],[1,0.5]];portConstraint=eastwest;" parent="DQgSexUhoDO7YtyzrvTM-116" vertex="1">
          <mxGeometry y="56" width="310" height="30" as="geometry" />
        </mxCell>
        <mxCell id="DQgSexUhoDO7YtyzrvTM-119" value="+AddHotelBooking(HotelBooking booking):Â  void" style="text;strokeColor=none;fillColor=none;align=left;verticalAlign=top;spacingLeft=4;spacingRight=4;overflow=hidden;rotatable=0;points=[[0,0.5],[1,0.5]];portConstraint=eastwest;" parent="DQgSexUhoDO7YtyzrvTM-116" vertex="1">
          <mxGeometry y="86" width="310" height="30" as="geometry" />
        </mxCell>
        <mxCell id="DQgSexUhoDO7YtyzrvTM-121" value="+CancellHotelBooking(int bookingId): void" style="text;strokeColor=none;fillColor=none;align=left;verticalAlign=top;spacingLeft=4;spacingRight=4;overflow=hidden;rotatable=0;points=[[0,0.5],[1,0.5]];portConstraint=eastwest;" parent="DQgSexUhoDO7YtyzrvTM-116" vertex="1">
          <mxGeometry y="116" width="310" height="30" as="geometry" />
        </mxCell>
        <mxCell id="F7kbLG5JI39RCB1sPVfV-2" value="+CalculateTotalPrice(): decimal" style="text;strokeColor=none;fillColor=none;align=left;verticalAlign=top;spacingLeft=4;spacingRight=4;overflow=hidden;rotatable=0;points=[[0,0.5],[1,0.5]];portConstraint=eastwest;" parent="DQgSexUhoDO7YtyzrvTM-116" vertex="1">
          <mxGeometry y="146" width="310" height="30" as="geometry" />
        </mxCell>
        <mxCell id="DQgSexUhoDO7YtyzrvTM-122" value="FlightBookingLogic" style="swimlane;fontStyle=1;align=center;verticalAlign=top;childLayout=stackLayout;horizontal=1;startSize=26;horizontalStack=0;resizeParent=1;resizeLast=0;collapsible=1;marginBottom=0;rounded=0;shadow=0;strokeWidth=1;" parent="1" vertex="1">
          <mxGeometry x="1420" y="1505" width="300" height="240" as="geometry">
            <mxRectangle x="130" y="380" width="160" height="26" as="alternateBounds" />
          </mxGeometry>
        </mxCell>
        <mxCell id="D2atpSBiz2Hw4cnT7bzk-4" value="" style="line;strokeWidth=2;html=1;" parent="DQgSexUhoDO7YtyzrvTM-122" vertex="1">
          <mxGeometry y="26" width="300" height="34" as="geometry" />
        </mxCell>
        <mxCell id="DQgSexUhoDO7YtyzrvTM-123" value="+GetAllFlightBookings(): List&lt;FlightBooking&gt;" style="text;strokeColor=none;fillColor=none;align=left;verticalAlign=top;spacingLeft=4;spacingRight=4;overflow=hidden;rotatable=0;points=[[0,0.5],[1,0.5]];portConstraint=eastwest;" parent="DQgSexUhoDO7YtyzrvTM-122" vertex="1">
          <mxGeometry y="60" width="300" height="30" as="geometry" />
        </mxCell>
        <mxCell id="DQgSexUhoDO7YtyzrvTM-124" value="+GetFlightBookingById(int bookingId): FlightBooking" style="text;strokeColor=none;fillColor=none;align=left;verticalAlign=top;spacingLeft=4;spacingRight=4;overflow=hidden;rotatable=0;points=[[0,0.5],[1,0.5]];portConstraint=eastwest;" parent="DQgSexUhoDO7YtyzrvTM-122" vertex="1">
          <mxGeometry y="90" width="300" height="30" as="geometry" />
        </mxCell>
        <mxCell id="DQgSexUhoDO7YtyzrvTM-125" value="+AddFlightBooking(FlightBooking booking):Â  void" style="text;strokeColor=none;fillColor=none;align=left;verticalAlign=top;spacingLeft=4;spacingRight=4;overflow=hidden;rotatable=0;points=[[0,0.5],[1,0.5]];portConstraint=eastwest;" parent="DQgSexUhoDO7YtyzrvTM-122" vertex="1">
          <mxGeometry y="120" width="300" height="30" as="geometry" />
        </mxCell>
        <mxCell id="DQgSexUhoDO7YtyzrvTM-127" value="+CancellFlightBooking(int bookingId): void" style="text;strokeColor=none;fillColor=none;align=left;verticalAlign=top;spacingLeft=4;spacingRight=4;overflow=hidden;rotatable=0;points=[[0,0.5],[1,0.5]];portConstraint=eastwest;" parent="DQgSexUhoDO7YtyzrvTM-122" vertex="1">
          <mxGeometry y="150" width="300" height="30" as="geometry" />
        </mxCell>
        <mxCell id="F7kbLG5JI39RCB1sPVfV-1" value="+CalculateTotalPrice(): decimal" style="text;strokeColor=none;fillColor=none;align=left;verticalAlign=top;spacingLeft=4;spacingRight=4;overflow=hidden;rotatable=0;points=[[0,0.5],[1,0.5]];portConstraint=eastwest;" parent="DQgSexUhoDO7YtyzrvTM-122" vertex="1">
          <mxGeometry y="180" width="300" height="30" as="geometry" />
        </mxCell>
        <mxCell id="DQgSexUhoDO7YtyzrvTM-128" value="FlightLogic" style="swimlane;fontStyle=1;align=center;verticalAlign=top;childLayout=stackLayout;horizontal=1;startSize=26;horizontalStack=0;resizeParent=1;resizeLast=0;collapsible=1;marginBottom=0;rounded=0;shadow=0;strokeWidth=1;" parent="1" vertex="1">
          <mxGeometry x="2180" y="1660" width="300" height="206" as="geometry">
            <mxRectangle x="130" y="380" width="160" height="26" as="alternateBounds" />
          </mxGeometry>
        </mxCell>
        <mxCell id="DQgSexUhoDO7YtyzrvTM-129" value="+GetAllFlights(): List&lt;Flight&gt;" style="text;strokeColor=none;fillColor=none;align=left;verticalAlign=top;spacingLeft=4;spacingRight=4;overflow=hidden;rotatable=0;points=[[0,0.5],[1,0.5]];portConstraint=eastwest;" parent="DQgSexUhoDO7YtyzrvTM-128" vertex="1">
          <mxGeometry y="26" width="300" height="30" as="geometry" />
        </mxCell>
        <mxCell id="DQgSexUhoDO7YtyzrvTM-130" value="+GetFlightById(int flightId): Flight" style="text;strokeColor=none;fillColor=none;align=left;verticalAlign=top;spacingLeft=4;spacingRight=4;overflow=hidden;rotatable=0;points=[[0,0.5],[1,0.5]];portConstraint=eastwest;" parent="DQgSexUhoDO7YtyzrvTM-128" vertex="1">
          <mxGeometry y="56" width="300" height="30" as="geometry" />
        </mxCell>
        <mxCell id="DQgSexUhoDO7YtyzrvTM-131" value="+AddFlight(Flight flight):Â  void" style="text;strokeColor=none;fillColor=none;align=left;verticalAlign=top;spacingLeft=4;spacingRight=4;overflow=hidden;rotatable=0;points=[[0,0.5],[1,0.5]];portConstraint=eastwest;" parent="DQgSexUhoDO7YtyzrvTM-128" vertex="1">
          <mxGeometry y="86" width="300" height="30" as="geometry" />
        </mxCell>
        <mxCell id="DQgSexUhoDO7YtyzrvTM-132" value="+UpdateFlight(Flight flight): void" style="text;strokeColor=none;fillColor=none;align=left;verticalAlign=top;spacingLeft=4;spacingRight=4;overflow=hidden;rotatable=0;points=[[0,0.5],[1,0.5]];portConstraint=eastwest;" parent="DQgSexUhoDO7YtyzrvTM-128" vertex="1">
          <mxGeometry y="116" width="300" height="30" as="geometry" />
        </mxCell>
        <mxCell id="DQgSexUhoDO7YtyzrvTM-133" value="+DeleteFlight(int flightId): void" style="text;strokeColor=none;fillColor=none;align=left;verticalAlign=top;spacingLeft=4;spacingRight=4;overflow=hidden;rotatable=0;points=[[0,0.5],[1,0.5]];portConstraint=eastwest;" parent="DQgSexUhoDO7YtyzrvTM-128" vertex="1">
          <mxGeometry y="146" width="300" height="30" as="geometry" />
        </mxCell>
        <mxCell id="DQgSexUhoDO7YtyzrvTM-134" value="HotelLogic" style="swimlane;fontStyle=1;align=center;verticalAlign=top;childLayout=stackLayout;horizontal=1;startSize=26;horizontalStack=0;resizeParent=1;resizeLast=0;collapsible=1;marginBottom=0;rounded=0;shadow=0;strokeWidth=1;" parent="1" vertex="1">
          <mxGeometry x="2190" y="1380" width="310" height="236" as="geometry">
            <mxRectangle x="340" y="380" width="170" height="26" as="alternateBounds" />
          </mxGeometry>
        </mxCell>
        <mxCell id="DQgSexUhoDO7YtyzrvTM-135" value="+GetAllHotels(): List&lt;Hotel&gt;" style="text;strokeColor=none;fillColor=none;align=left;verticalAlign=top;spacingLeft=4;spacingRight=4;overflow=hidden;rotatable=0;points=[[0,0.5],[1,0.5]];portConstraint=eastwest;" parent="DQgSexUhoDO7YtyzrvTM-134" vertex="1">
          <mxGeometry y="26" width="310" height="30" as="geometry" />
        </mxCell>
        <mxCell id="DQgSexUhoDO7YtyzrvTM-136" value="+GetHotelById(int hotelId): Hotel" style="text;strokeColor=none;fillColor=none;align=left;verticalAlign=top;spacingLeft=4;spacingRight=4;overflow=hidden;rotatable=0;points=[[0,0.5],[1,0.5]];portConstraint=eastwest;" parent="DQgSexUhoDO7YtyzrvTM-134" vertex="1">
          <mxGeometry y="56" width="310" height="30" as="geometry" />
        </mxCell>
        <mxCell id="DQgSexUhoDO7YtyzrvTM-137" value="+AddHotel(Hotel hotel):Â  void" style="text;strokeColor=none;fillColor=none;align=left;verticalAlign=top;spacingLeft=4;spacingRight=4;overflow=hidden;rotatable=0;points=[[0,0.5],[1,0.5]];portConstraint=eastwest;" parent="DQgSexUhoDO7YtyzrvTM-134" vertex="1">
          <mxGeometry y="86" width="310" height="30" as="geometry" />
        </mxCell>
        <mxCell id="DQgSexUhoDO7YtyzrvTM-138" value="+UpdateHotel(Hotel hotel): void" style="text;strokeColor=none;fillColor=none;align=left;verticalAlign=top;spacingLeft=4;spacingRight=4;overflow=hidden;rotatable=0;points=[[0,0.5],[1,0.5]];portConstraint=eastwest;" parent="DQgSexUhoDO7YtyzrvTM-134" vertex="1">
          <mxGeometry y="116" width="310" height="30" as="geometry" />
        </mxCell>
        <mxCell id="DQgSexUhoDO7YtyzrvTM-139" value="+DeleteHotel(int hotelId): void" style="text;strokeColor=none;fillColor=none;align=left;verticalAlign=top;spacingLeft=4;spacingRight=4;overflow=hidden;rotatable=0;points=[[0,0.5],[1,0.5]];portConstraint=eastwest;" parent="DQgSexUhoDO7YtyzrvTM-134" vertex="1">
          <mxGeometry y="146" width="310" height="30" as="geometry" />
        </mxCell>
        <mxCell id="DQgSexUhoDO7YtyzrvTM-113" value="+GetAllReviewsById(int hotelId): List&lt;Review&gt;" style="text;strokeColor=none;fillColor=none;align=left;verticalAlign=top;spacingLeft=4;spacingRight=4;overflow=hidden;rotatable=0;points=[[0,0.5],[1,0.5]];portConstraint=eastwest;" parent="DQgSexUhoDO7YtyzrvTM-134" vertex="1">
          <mxGeometry y="176" width="310" height="30" as="geometry" />
        </mxCell>
        <mxCell id="F7kbLG5JI39RCB1sPVfV-4" value="+CalculateAverageRating(int hotelId): List&lt;Review&gt;" style="text;strokeColor=none;fillColor=none;align=left;verticalAlign=top;spacingLeft=4;spacingRight=4;overflow=hidden;rotatable=0;points=[[0,0.5],[1,0.5]];portConstraint=eastwest;" parent="DQgSexUhoDO7YtyzrvTM-134" vertex="1">
          <mxGeometry y="206" width="310" height="30" as="geometry" />
        </mxCell>
        <mxCell id="F7kbLG5JI39RCB1sPVfV-6" value="" style="endArrow=block;endSize=10;endFill=0;shadow=0;strokeWidth=1;rounded=0;edgeStyle=elbowEdgeStyle;elbow=vertical;" parent="1" source="DQgSexUhoDO7YtyzrvTM-116" target="DQgSexUhoDO7YtyzrvTM-100" edge="1">
          <mxGeometry width="160" relative="1" as="geometry">
            <mxPoint x="1633" y="1436" as="sourcePoint" />
            <mxPoint x="1398" y="1330" as="targetPoint" />
          </mxGeometry>
        </mxCell>
        <mxCell id="F7kbLG5JI39RCB1sPVfV-7" value="" style="endArrow=block;endSize=10;endFill=0;shadow=0;strokeWidth=1;rounded=0;edgeStyle=elbowEdgeStyle;elbow=vertical;" parent="1" source="DQgSexUhoDO7YtyzrvTM-122" target="DQgSexUhoDO7YtyzrvTM-100" edge="1">
          <mxGeometry width="160" relative="1" as="geometry">
            <mxPoint x="1560" y="1400" as="sourcePoint" />
            <mxPoint x="1350" y="1336" as="targetPoint" />
          </mxGeometry>
        </mxCell>
      </root>
    </mxGraphModel>
  </diagram>
  <diagram name="Version 1.3" id="GDOn9U3A9_myJ2rr4ry-">
    <mxGraphModel dx="2790" dy="2427" grid="1" gridSize="10" guides="1" tooltips="1" connect="1" arrows="1" fold="1" page="1" pageScale="1" pageWidth="850" pageHeight="1100" math="0" shadow="0">
      <root>
        <mxCell id="Pm0zzvNBCTfCiv9d_ps6-0" />
        <mxCell id="Pm0zzvNBCTfCiv9d_ps6-1" parent="Pm0zzvNBCTfCiv9d_ps6-0" />
        <mxCell id="Pm0zzvNBCTfCiv9d_ps6-2" style="edgeStyle=orthogonalEdgeStyle;rounded=0;orthogonalLoop=1;jettySize=auto;html=1;entryX=0.5;entryY=0;entryDx=0;entryDy=0;" parent="Pm0zzvNBCTfCiv9d_ps6-1" source="Pm0zzvNBCTfCiv9d_ps6-3" target="Pm0zzvNBCTfCiv9d_ps6-25" edge="1">
          <mxGeometry relative="1" as="geometry" />
        </mxCell>
        <mxCell id="Pm0zzvNBCTfCiv9d_ps6-3" value="Booking" style="swimlane;fontStyle=3;align=center;verticalAlign=top;childLayout=stackLayout;horizontal=1;startSize=26;horizontalStack=0;resizeParent=1;resizeLast=0;collapsible=1;marginBottom=0;rounded=0;shadow=0;strokeWidth=1;" parent="Pm0zzvNBCTfCiv9d_ps6-1" vertex="1">
          <mxGeometry x="420" y="130" width="220" height="224" as="geometry">
            <mxRectangle x="230" y="140" width="160" height="26" as="alternateBounds" />
          </mxGeometry>
        </mxCell>
        <mxCell id="Pm0zzvNBCTfCiv9d_ps6-4" value="+BookingId {get; set;}: int" style="text;align=left;verticalAlign=top;spacingLeft=4;spacingRight=4;overflow=hidden;rotatable=0;points=[[0,0.5],[1,0.5]];portConstraint=eastwest;" parent="Pm0zzvNBCTfCiv9d_ps6-3" vertex="1">
          <mxGeometry y="26" width="220" height="26" as="geometry" />
        </mxCell>
        <mxCell id="Pm0zzvNBCTfCiv9d_ps6-5" value="+User {get; set;}: User" style="text;align=left;verticalAlign=top;spacingLeft=4;spacingRight=4;overflow=hidden;rotatable=0;points=[[0,0.5],[1,0.5]];portConstraint=eastwest;" parent="Pm0zzvNBCTfCiv9d_ps6-3" vertex="1">
          <mxGeometry y="52" width="220" height="26" as="geometry" />
        </mxCell>
        <mxCell id="Pm0zzvNBCTfCiv9d_ps6-6" value="+StartDate { get; set; }:Â DateTime" style="text;align=left;verticalAlign=top;spacingLeft=4;spacingRight=4;overflow=hidden;rotatable=0;points=[[0,0.5],[1,0.5]];portConstraint=eastwest;" parent="Pm0zzvNBCTfCiv9d_ps6-3" vertex="1">
          <mxGeometry y="78" width="220" height="26" as="geometry" />
        </mxCell>
        <mxCell id="Pm0zzvNBCTfCiv9d_ps6-7" value="&lt;span style=&quot;color: rgb(0, 0, 0); font-family: Helvetica; font-size: 12px; font-style: normal; font-variant-ligatures: normal; font-variant-caps: normal; font-weight: 400; letter-spacing: normal; orphans: 2; text-align: left; text-indent: 0px; text-transform: none; widows: 2; word-spacing: 0px; -webkit-text-stroke-width: 0px; background-color: rgb(251, 251, 251); text-decoration-thickness: initial; text-decoration-style: initial; text-decoration-color: initial; float: none; display: inline !important;&quot;&gt;&amp;nbsp;+EndDate { get; set; }:&amp;nbsp;DateTime&lt;/span&gt;" style="text;whiteSpace=wrap;html=1;" parent="Pm0zzvNBCTfCiv9d_ps6-3" vertex="1">
          <mxGeometry y="104" width="220" height="26" as="geometry" />
        </mxCell>
        <mxCell id="Pm0zzvNBCTfCiv9d_ps6-8" value="+Price {get; set;}: decimal" style="text;align=left;verticalAlign=top;spacingLeft=4;spacingRight=4;overflow=hidden;rotatable=0;points=[[0,0.5],[1,0.5]];portConstraint=eastwest;" parent="Pm0zzvNBCTfCiv9d_ps6-3" vertex="1">
          <mxGeometry y="130" width="220" height="26" as="geometry" />
        </mxCell>
        <mxCell id="Pm0zzvNBCTfCiv9d_ps6-9" value="+Description {get; set;}: string" style="text;strokeColor=none;fillColor=none;align=left;verticalAlign=top;spacingLeft=4;spacingRight=4;overflow=hidden;rotatable=0;points=[[0,0.5],[1,0.5]];portConstraint=eastwest;" parent="Pm0zzvNBCTfCiv9d_ps6-3" vertex="1">
          <mxGeometry y="156" width="220" height="30" as="geometry" />
        </mxCell>
        <mxCell id="Pm0zzvNBCTfCiv9d_ps6-10" value="+BookingDate { get; set; }:Â DateTime" style="text;align=left;verticalAlign=top;spacingLeft=4;spacingRight=4;overflow=hidden;rotatable=0;points=[[0,0.5],[1,0.5]];portConstraint=eastwest;" parent="Pm0zzvNBCTfCiv9d_ps6-3" vertex="1">
          <mxGeometry y="186" width="220" height="26" as="geometry" />
        </mxCell>
        <mxCell id="mBN9E9gBYDlc1gW3XMUm-0" value="" style="line;html=1;strokeWidth=1;align=left;verticalAlign=middle;spacingTop=-1;spacingLeft=3;spacingRight=3;rotatable=0;labelPosition=right;points=[];portConstraint=eastwest;" vertex="1" parent="Pm0zzvNBCTfCiv9d_ps6-3">
          <mxGeometry y="212" width="220" height="8" as="geometry" />
        </mxCell>
        <mxCell id="Pm0zzvNBCTfCiv9d_ps6-11" style="edgeStyle=orthogonalEdgeStyle;rounded=0;orthogonalLoop=1;jettySize=auto;html=1;entryX=0.435;entryY=0;entryDx=0;entryDy=0;entryPerimeter=0;" parent="Pm0zzvNBCTfCiv9d_ps6-1" source="Pm0zzvNBCTfCiv9d_ps6-12" target="Pm0zzvNBCTfCiv9d_ps6-53" edge="1">
          <mxGeometry relative="1" as="geometry" />
        </mxCell>
        <mxCell id="Pm0zzvNBCTfCiv9d_ps6-12" value="FlightBooking" style="swimlane;fontStyle=1;align=center;verticalAlign=top;childLayout=stackLayout;horizontal=1;startSize=26;horizontalStack=0;resizeParent=1;resizeLast=0;collapsible=1;marginBottom=0;rounded=0;shadow=0;strokeWidth=1;" parent="Pm0zzvNBCTfCiv9d_ps6-1" vertex="1">
          <mxGeometry x="40" y="460" width="270" height="160" as="geometry">
            <mxRectangle x="130" y="380" width="160" height="26" as="alternateBounds" />
          </mxGeometry>
        </mxCell>
        <mxCell id="Pm0zzvNBCTfCiv9d_ps6-14" value="+Flight {get; set;}: Flight" style="text;align=left;verticalAlign=top;spacingLeft=4;spacingRight=4;overflow=hidden;rotatable=0;points=[[0,0.5],[1,0.5]];portConstraint=eastwest;" parent="Pm0zzvNBCTfCiv9d_ps6-12" vertex="1">
          <mxGeometry y="26" width="270" height="26" as="geometry" />
        </mxCell>
        <mxCell id="Pm0zzvNBCTfCiv9d_ps6-15" value="+ExtraLuggage{get; set;}: bool" style="text;align=left;verticalAlign=top;spacingLeft=4;spacingRight=4;overflow=hidden;rotatable=0;points=[[0,0.5],[1,0.5]];portConstraint=eastwest;rounded=0;shadow=0;html=0;" parent="Pm0zzvNBCTfCiv9d_ps6-12" vertex="1">
          <mxGeometry y="52" width="270" height="26" as="geometry" />
        </mxCell>
        <mxCell id="Pm0zzvNBCTfCiv9d_ps6-16" value="" style="line;html=1;strokeWidth=1;align=left;verticalAlign=middle;spacingTop=-1;spacingLeft=3;spacingRight=3;rotatable=0;labelPosition=right;points=[];portConstraint=eastwest;" parent="Pm0zzvNBCTfCiv9d_ps6-12" vertex="1">
          <mxGeometry y="78" width="270" height="8" as="geometry" />
        </mxCell>
        <mxCell id="Pm0zzvNBCTfCiv9d_ps6-17" value="" style="endArrow=block;endSize=10;endFill=0;shadow=0;strokeWidth=1;rounded=0;edgeStyle=elbowEdgeStyle;elbow=vertical;" parent="Pm0zzvNBCTfCiv9d_ps6-1" source="Pm0zzvNBCTfCiv9d_ps6-12" target="Pm0zzvNBCTfCiv9d_ps6-3" edge="1">
          <mxGeometry width="160" relative="1" as="geometry">
            <mxPoint x="340" y="163" as="sourcePoint" />
            <mxPoint x="340" y="163" as="targetPoint" />
          </mxGeometry>
        </mxCell>
        <mxCell id="Pm0zzvNBCTfCiv9d_ps6-18" style="edgeStyle=orthogonalEdgeStyle;rounded=0;orthogonalLoop=1;jettySize=auto;html=1;entryX=0.5;entryY=0;entryDx=0;entryDy=0;" parent="Pm0zzvNBCTfCiv9d_ps6-1" source="Pm0zzvNBCTfCiv9d_ps6-19" target="Pm0zzvNBCTfCiv9d_ps6-42" edge="1">
          <mxGeometry relative="1" as="geometry" />
        </mxCell>
        <mxCell id="Pm0zzvNBCTfCiv9d_ps6-19" value="HotelBooking" style="swimlane;fontStyle=1;align=center;verticalAlign=top;childLayout=stackLayout;horizontal=1;startSize=26;horizontalStack=0;resizeParent=1;resizeLast=0;collapsible=1;marginBottom=0;rounded=0;shadow=0;strokeWidth=1;" parent="Pm0zzvNBCTfCiv9d_ps6-1" vertex="1">
          <mxGeometry x="520" y="460" width="250" height="302" as="geometry">
            <mxRectangle x="340" y="380" width="170" height="26" as="alternateBounds" />
          </mxGeometry>
        </mxCell>
        <mxCell id="Pm0zzvNBCTfCiv9d_ps6-21" value="+Hotel {get; set;}: Hotel" style="text;align=left;verticalAlign=top;spacingLeft=4;spacingRight=4;overflow=hidden;rotatable=0;points=[[0,0.5],[1,0.5]];portConstraint=eastwest;" parent="Pm0zzvNBCTfCiv9d_ps6-19" vertex="1">
          <mxGeometry y="26" width="250" height="26" as="geometry" />
        </mxCell>
        <mxCell id="Pm0zzvNBCTfCiv9d_ps6-22" value="" style="line;html=1;strokeWidth=1;align=left;verticalAlign=middle;spacingTop=-1;spacingLeft=3;spacingRight=3;rotatable=0;labelPosition=right;points=[];portConstraint=eastwest;" parent="Pm0zzvNBCTfCiv9d_ps6-19" vertex="1">
          <mxGeometry y="52" width="250" height="32" as="geometry" />
        </mxCell>
        <mxCell id="Pm0zzvNBCTfCiv9d_ps6-23" value="" style="endArrow=block;endSize=10;endFill=0;shadow=0;strokeWidth=1;rounded=0;edgeStyle=elbowEdgeStyle;elbow=vertical;" parent="Pm0zzvNBCTfCiv9d_ps6-1" source="Pm0zzvNBCTfCiv9d_ps6-19" target="Pm0zzvNBCTfCiv9d_ps6-3" edge="1">
          <mxGeometry width="160" relative="1" as="geometry">
            <mxPoint x="350" y="333" as="sourcePoint" />
            <mxPoint x="450" y="231" as="targetPoint" />
          </mxGeometry>
        </mxCell>
        <mxCell id="Pm0zzvNBCTfCiv9d_ps6-24" style="edgeStyle=orthogonalEdgeStyle;rounded=0;orthogonalLoop=1;jettySize=auto;html=1;entryX=0.5;entryY=0;entryDx=0;entryDy=0;" parent="Pm0zzvNBCTfCiv9d_ps6-1" source="Pm0zzvNBCTfCiv9d_ps6-25" target="Pm0zzvNBCTfCiv9d_ps6-3" edge="1">
          <mxGeometry relative="1" as="geometry">
            <Array as="points">
              <mxPoint x="1290" y="449" />
              <mxPoint x="1290" y="110" />
              <mxPoint x="530" y="110" />
            </Array>
          </mxGeometry>
        </mxCell>
        <mxCell id="Vf6vNnHTQZUbYHwXiiwt-2" style="edgeStyle=orthogonalEdgeStyle;rounded=0;orthogonalLoop=1;jettySize=auto;html=1;entryX=0.14;entryY=0.015;entryDx=0;entryDy=0;entryPerimeter=0;" parent="Pm0zzvNBCTfCiv9d_ps6-1" source="Pm0zzvNBCTfCiv9d_ps6-25" target="Pm0zzvNBCTfCiv9d_ps6-33" edge="1">
          <mxGeometry relative="1" as="geometry">
            <Array as="points">
              <mxPoint x="1070" y="754" />
              <mxPoint x="1108" y="754" />
            </Array>
          </mxGeometry>
        </mxCell>
        <mxCell id="Pm0zzvNBCTfCiv9d_ps6-25" value="User" style="swimlane;fontStyle=1;align=center;verticalAlign=top;childLayout=stackLayout;horizontal=1;startSize=26;horizontalStack=0;resizeParent=1;resizeParentMax=0;resizeLast=0;collapsible=1;marginBottom=0;" parent="Pm0zzvNBCTfCiv9d_ps6-1" vertex="1">
          <mxGeometry x="930" y="348" width="279" height="202" as="geometry" />
        </mxCell>
        <mxCell id="Pm0zzvNBCTfCiv9d_ps6-26" value="+UserId {get; set;}: int" style="text;strokeColor=none;fillColor=none;align=left;verticalAlign=top;spacingLeft=4;spacingRight=4;overflow=hidden;rotatable=0;points=[[0,0.5],[1,0.5]];portConstraint=eastwest;" parent="Pm0zzvNBCTfCiv9d_ps6-25" vertex="1">
          <mxGeometry y="26" width="279" height="30" as="geometry" />
        </mxCell>
        <mxCell id="Pm0zzvNBCTfCiv9d_ps6-27" value="+FirstName {get; set;}: string" style="text;strokeColor=none;fillColor=none;align=left;verticalAlign=top;spacingLeft=4;spacingRight=4;overflow=hidden;rotatable=0;points=[[0,0.5],[1,0.5]];portConstraint=eastwest;" parent="Pm0zzvNBCTfCiv9d_ps6-25" vertex="1">
          <mxGeometry y="56" width="279" height="30" as="geometry" />
        </mxCell>
        <mxCell id="Pm0zzvNBCTfCiv9d_ps6-28" value="+LastName {get; set;}: string" style="text;strokeColor=none;fillColor=none;align=left;verticalAlign=top;spacingLeft=4;spacingRight=4;overflow=hidden;rotatable=0;points=[[0,0.5],[1,0.5]];portConstraint=eastwest;" parent="Pm0zzvNBCTfCiv9d_ps6-25" vertex="1">
          <mxGeometry y="86" width="279" height="30" as="geometry" />
        </mxCell>
        <mxCell id="Pm0zzvNBCTfCiv9d_ps6-29" value="+Email {get; set;}: string" style="text;strokeColor=none;fillColor=none;align=left;verticalAlign=top;spacingLeft=4;spacingRight=4;overflow=hidden;rotatable=0;points=[[0,0.5],[1,0.5]];portConstraint=eastwest;" parent="Pm0zzvNBCTfCiv9d_ps6-25" vertex="1">
          <mxGeometry y="116" width="279" height="30" as="geometry" />
        </mxCell>
        <mxCell id="Pm0zzvNBCTfCiv9d_ps6-30" value="+Password {get; set;}: string" style="text;strokeColor=none;fillColor=none;align=left;verticalAlign=top;spacingLeft=4;spacingRight=4;overflow=hidden;rotatable=0;points=[[0,0.5],[1,0.5]];portConstraint=eastwest;" parent="Pm0zzvNBCTfCiv9d_ps6-25" vertex="1">
          <mxGeometry y="146" width="279" height="30" as="geometry" />
        </mxCell>
        <mxCell id="Pm0zzvNBCTfCiv9d_ps6-31" value="+AllBooking {get; set; }: List&lt;Booking&gt;" style="text;align=left;verticalAlign=top;spacingLeft=4;spacingRight=4;overflow=hidden;rotatable=0;points=[[0,0.5],[1,0.5]];portConstraint=eastwest;" parent="Pm0zzvNBCTfCiv9d_ps6-25" vertex="1">
          <mxGeometry y="176" width="279" height="26" as="geometry" />
        </mxCell>
        <mxCell id="Pm0zzvNBCTfCiv9d_ps6-32" style="edgeStyle=orthogonalEdgeStyle;rounded=0;orthogonalLoop=1;jettySize=auto;html=1;" parent="Pm0zzvNBCTfCiv9d_ps6-1" source="Pm0zzvNBCTfCiv9d_ps6-33" target="Pm0zzvNBCTfCiv9d_ps6-25" edge="1">
          <mxGeometry relative="1" as="geometry">
            <Array as="points">
              <mxPoint x="1230" y="754" />
              <mxPoint x="1170" y="754" />
            </Array>
          </mxGeometry>
        </mxCell>
        <mxCell id="Pm0zzvNBCTfCiv9d_ps6-33" value="Review" style="swimlane;fontStyle=1;align=center;verticalAlign=top;childLayout=stackLayout;horizontal=1;startSize=26;horizontalStack=0;resizeParent=1;resizeLast=0;collapsible=1;marginBottom=0;rounded=0;shadow=0;strokeWidth=1;" parent="Pm0zzvNBCTfCiv9d_ps6-1" vertex="1">
          <mxGeometry x="1080" y="940" width="200" height="112" as="geometry">
            <mxRectangle x="340" y="380" width="170" height="26" as="alternateBounds" />
          </mxGeometry>
        </mxCell>
        <mxCell id="Pm0zzvNBCTfCiv9d_ps6-34" value="+User {get; set;}: User" style="text;align=left;verticalAlign=top;spacingLeft=4;spacingRight=4;overflow=hidden;rotatable=0;points=[[0,0.5],[1,0.5]];portConstraint=eastwest;" parent="Pm0zzvNBCTfCiv9d_ps6-33" vertex="1">
          <mxGeometry y="26" width="200" height="26" as="geometry" />
        </mxCell>
        <mxCell id="Pm0zzvNBCTfCiv9d_ps6-35" value="+Description {get; set;}: string" style="text;align=left;verticalAlign=top;spacingLeft=4;spacingRight=4;overflow=hidden;rotatable=0;points=[[0,0.5],[1,0.5]];portConstraint=eastwest;" parent="Pm0zzvNBCTfCiv9d_ps6-33" vertex="1">
          <mxGeometry y="52" width="200" height="26" as="geometry" />
        </mxCell>
        <mxCell id="Pm0zzvNBCTfCiv9d_ps6-36" value="+Rating {get; set;}: int" style="text;align=left;verticalAlign=top;spacingLeft=4;spacingRight=4;overflow=hidden;rotatable=0;points=[[0,0.5],[1,0.5]];portConstraint=eastwest;" parent="Pm0zzvNBCTfCiv9d_ps6-33" vertex="1">
          <mxGeometry y="78" width="200" height="26" as="geometry" />
        </mxCell>
        <mxCell id="Pm0zzvNBCTfCiv9d_ps6-37" value="" style="line;html=1;strokeWidth=1;align=left;verticalAlign=middle;spacingTop=-1;spacingLeft=3;spacingRight=3;rotatable=0;labelPosition=right;points=[];portConstraint=eastwest;" parent="Pm0zzvNBCTfCiv9d_ps6-33" vertex="1">
          <mxGeometry y="104" width="200" height="8" as="geometry" />
        </mxCell>
        <mxCell id="Pm0zzvNBCTfCiv9d_ps6-38" value="&lt;p style=&quot;margin:0px;margin-top:4px;text-align:center;&quot;&gt;&lt;i&gt;&amp;lt;&amp;lt;&lt;/i&gt;enumeration&lt;i&gt;&amp;gt;&amp;gt;&lt;/i&gt;&lt;br&gt;&lt;b&gt;Rooms&lt;/b&gt;&lt;/p&gt;&lt;hr size=&quot;1&quot;&gt;&lt;p style=&quot;margin:0px;margin-left:4px;&quot;&gt;SINGLE&lt;/p&gt;&lt;p style=&quot;margin:0px;margin-left:4px;&quot;&gt;NORMAL&lt;/p&gt;&lt;p style=&quot;margin:0px;margin-left:4px;&quot;&gt;FAMILY&lt;/p&gt;" style="verticalAlign=top;align=left;overflow=fill;fontSize=12;fontFamily=Helvetica;html=1;" parent="Pm0zzvNBCTfCiv9d_ps6-1" vertex="1">
          <mxGeometry x="670" y="1240" width="170" height="110" as="geometry" />
        </mxCell>
        <mxCell id="Pm0zzvNBCTfCiv9d_ps6-39" value="&lt;p style=&quot;margin:0px;margin-top:4px;text-align:center;&quot;&gt;&lt;i&gt;&amp;lt;&amp;lt;&lt;/i&gt;enumeration&lt;i&gt;&amp;gt;&amp;gt;&lt;/i&gt;&lt;br&gt;&lt;b&gt;Seats&lt;/b&gt;&lt;/p&gt;&lt;hr size=&quot;1&quot;&gt;&lt;p style=&quot;margin:0px;margin-left:4px;&quot;&gt;ECONOMY&lt;br&gt;&lt;/p&gt;&lt;p style=&quot;margin:0px;margin-left:4px;&quot;&gt;&lt;span style=&quot;background-color: initial;&quot;&gt;PREMIUM ECONOMY&lt;/span&gt;&lt;/p&gt;&lt;p style=&quot;margin:0px;margin-left:4px;&quot;&gt;BUSINESS&lt;/p&gt;&lt;p style=&quot;margin:0px;margin-left:4px;&quot;&gt;FIRST CLASS&lt;/p&gt;" style="verticalAlign=top;align=left;overflow=fill;fontSize=12;fontFamily=Helvetica;html=1;" parent="Pm0zzvNBCTfCiv9d_ps6-1" vertex="1">
          <mxGeometry x="120" y="1170" width="170" height="120" as="geometry" />
        </mxCell>
        <mxCell id="Pm0zzvNBCTfCiv9d_ps6-40" style="edgeStyle=orthogonalEdgeStyle;rounded=0;orthogonalLoop=1;jettySize=auto;html=1;entryX=0.438;entryY=0.01;entryDx=0;entryDy=0;entryPerimeter=0;" parent="Pm0zzvNBCTfCiv9d_ps6-1" source="Pm0zzvNBCTfCiv9d_ps6-42" target="Pm0zzvNBCTfCiv9d_ps6-38" edge="1">
          <mxGeometry relative="1" as="geometry" />
        </mxCell>
        <mxCell id="Pm0zzvNBCTfCiv9d_ps6-41" style="edgeStyle=orthogonalEdgeStyle;rounded=0;orthogonalLoop=1;jettySize=auto;html=1;" parent="Pm0zzvNBCTfCiv9d_ps6-1" source="Pm0zzvNBCTfCiv9d_ps6-42" target="Pm0zzvNBCTfCiv9d_ps6-33" edge="1">
          <mxGeometry relative="1" as="geometry" />
        </mxCell>
        <mxCell id="Pm0zzvNBCTfCiv9d_ps6-42" value="Hotel" style="swimlane;fontStyle=1;align=center;verticalAlign=top;childLayout=stackLayout;horizontal=1;startSize=26;horizontalStack=0;resizeParent=1;resizeLast=0;collapsible=1;marginBottom=0;rounded=0;shadow=0;strokeWidth=1;" parent="Pm0zzvNBCTfCiv9d_ps6-1" vertex="1">
          <mxGeometry x="535" y="870" width="250" height="300" as="geometry">
            <mxRectangle x="340" y="380" width="170" height="26" as="alternateBounds" />
          </mxGeometry>
        </mxCell>
        <mxCell id="Pm0zzvNBCTfCiv9d_ps6-43" value="+HotelId {get; set;}: int" style="text;align=left;verticalAlign=top;spacingLeft=4;spacingRight=4;overflow=hidden;rotatable=0;points=[[0,0.5],[1,0.5]];portConstraint=eastwest;" parent="Pm0zzvNBCTfCiv9d_ps6-42" vertex="1">
          <mxGeometry y="26" width="250" height="26" as="geometry" />
        </mxCell>
        <mxCell id="Pm0zzvNBCTfCiv9d_ps6-44" value="+Name {get; set;}: string" style="text;align=left;verticalAlign=top;spacingLeft=4;spacingRight=4;overflow=hidden;rotatable=0;points=[[0,0.5],[1,0.5]];portConstraint=eastwest;" parent="Pm0zzvNBCTfCiv9d_ps6-42" vertex="1">
          <mxGeometry y="52" width="250" height="26" as="geometry" />
        </mxCell>
        <mxCell id="Pm0zzvNBCTfCiv9d_ps6-45" value="+Address {get; set;}: string" style="text;align=left;verticalAlign=top;spacingLeft=4;spacingRight=4;overflow=hidden;rotatable=0;points=[[0,0.5],[1,0.5]];portConstraint=eastwest;" parent="Pm0zzvNBCTfCiv9d_ps6-42" vertex="1">
          <mxGeometry y="78" width="250" height="26" as="geometry" />
        </mxCell>
        <mxCell id="Pm0zzvNBCTfCiv9d_ps6-46" value="+City {get; set;}: string" style="text;align=left;verticalAlign=top;spacingLeft=4;spacingRight=4;overflow=hidden;rotatable=0;points=[[0,0.5],[1,0.5]];portConstraint=eastwest;" parent="Pm0zzvNBCTfCiv9d_ps6-42" vertex="1">
          <mxGeometry y="104" width="250" height="26" as="geometry" />
        </mxCell>
        <mxCell id="Pm0zzvNBCTfCiv9d_ps6-47" value="+Country {get; set;}: string" style="text;align=left;verticalAlign=top;spacingLeft=4;spacingRight=4;overflow=hidden;rotatable=0;points=[[0,0.5],[1,0.5]];portConstraint=eastwest;" parent="Pm0zzvNBCTfCiv9d_ps6-42" vertex="1">
          <mxGeometry y="130" width="250" height="26" as="geometry" />
        </mxCell>
        <mxCell id="Pm0zzvNBCTfCiv9d_ps6-48" value="+StarRating {get; set;}: int" style="text;align=left;verticalAlign=top;spacingLeft=4;spacingRight=4;overflow=hidden;rotatable=0;points=[[0,0.5],[1,0.5]];portConstraint=eastwest;" parent="Pm0zzvNBCTfCiv9d_ps6-42" vertex="1">
          <mxGeometry y="156" width="250" height="26" as="geometry" />
        </mxCell>
        <mxCell id="Pm0zzvNBCTfCiv9d_ps6-49" value="+PricePerNight {get; set; }: decimal" style="text;align=left;verticalAlign=top;spacingLeft=4;spacingRight=4;overflow=hidden;rotatable=0;points=[[0,0.5],[1,0.5]];portConstraint=eastwest;" parent="Pm0zzvNBCTfCiv9d_ps6-42" vertex="1">
          <mxGeometry y="182" width="250" height="26" as="geometry" />
        </mxCell>
        <mxCell id="Pm0zzvNBCTfCiv9d_ps6-50" value="+Room {get; set; }: Rooms" style="text;align=left;verticalAlign=top;spacingLeft=4;spacingRight=4;overflow=hidden;rotatable=0;points=[[0,0.5],[1,0.5]];portConstraint=eastwest;" parent="Pm0zzvNBCTfCiv9d_ps6-42" vertex="1">
          <mxGeometry y="208" width="250" height="26" as="geometry" />
        </mxCell>
        <mxCell id="Pm0zzvNBCTfCiv9d_ps6-51" value="+Reviews {get; set; }: List&lt;Review&gt;" style="text;align=left;verticalAlign=top;spacingLeft=4;spacingRight=4;overflow=hidden;rotatable=0;points=[[0,0.5],[1,0.5]];portConstraint=eastwest;" parent="Pm0zzvNBCTfCiv9d_ps6-42" vertex="1">
          <mxGeometry y="234" width="250" height="26" as="geometry" />
        </mxCell>
        <mxCell id="Pm0zzvNBCTfCiv9d_ps6-52" style="edgeStyle=orthogonalEdgeStyle;rounded=0;orthogonalLoop=1;jettySize=auto;html=1;entryX=0.407;entryY=0.009;entryDx=0;entryDy=0;entryPerimeter=0;" parent="Pm0zzvNBCTfCiv9d_ps6-1" source="Pm0zzvNBCTfCiv9d_ps6-53" target="Pm0zzvNBCTfCiv9d_ps6-39" edge="1">
          <mxGeometry relative="1" as="geometry" />
        </mxCell>
        <mxCell id="Pm0zzvNBCTfCiv9d_ps6-53" value="Flight" style="swimlane;fontStyle=1;align=center;verticalAlign=top;childLayout=stackLayout;horizontal=1;startSize=26;horizontalStack=0;resizeParent=1;resizeLast=0;collapsible=1;marginBottom=0;rounded=0;shadow=0;strokeWidth=1;" parent="Pm0zzvNBCTfCiv9d_ps6-1" vertex="1">
          <mxGeometry x="60" y="762" width="270" height="260" as="geometry">
            <mxRectangle x="130" y="380" width="160" height="26" as="alternateBounds" />
          </mxGeometry>
        </mxCell>
        <mxCell id="Pm0zzvNBCTfCiv9d_ps6-54" value="+FlightId {get; set;}: int" style="text;align=left;verticalAlign=top;spacingLeft=4;spacingRight=4;overflow=hidden;rotatable=0;points=[[0,0.5],[1,0.5]];portConstraint=eastwest;" parent="Pm0zzvNBCTfCiv9d_ps6-53" vertex="1">
          <mxGeometry y="26" width="270" height="26" as="geometry" />
        </mxCell>
        <mxCell id="Pm0zzvNBCTfCiv9d_ps6-55" value="+Airline {get; set;}: string" style="text;align=left;verticalAlign=top;spacingLeft=4;spacingRight=4;overflow=hidden;rotatable=0;points=[[0,0.5],[1,0.5]];portConstraint=eastwest;" parent="Pm0zzvNBCTfCiv9d_ps6-53" vertex="1">
          <mxGeometry y="52" width="270" height="26" as="geometry" />
        </mxCell>
        <mxCell id="Pm0zzvNBCTfCiv9d_ps6-56" value="+DepartureAirport {get; set;}: string" style="text;align=left;verticalAlign=top;spacingLeft=4;spacingRight=4;overflow=hidden;rotatable=0;points=[[0,0.5],[1,0.5]];portConstraint=eastwest;" parent="Pm0zzvNBCTfCiv9d_ps6-53" vertex="1">
          <mxGeometry y="78" width="270" height="26" as="geometry" />
        </mxCell>
        <mxCell id="Pm0zzvNBCTfCiv9d_ps6-57" value="+ArrivalAirport {get; set;}: string" style="text;align=left;verticalAlign=top;spacingLeft=4;spacingRight=4;overflow=hidden;rotatable=0;points=[[0,0.5],[1,0.5]];portConstraint=eastwest;" parent="Pm0zzvNBCTfCiv9d_ps6-53" vertex="1">
          <mxGeometry y="104" width="270" height="26" as="geometry" />
        </mxCell>
        <mxCell id="Pm0zzvNBCTfCiv9d_ps6-58" value="+DepartureTime { get; set; }:Â DateTime" style="text;align=left;verticalAlign=top;spacingLeft=4;spacingRight=4;overflow=hidden;rotatable=0;points=[[0,0.5],[1,0.5]];portConstraint=eastwest;" parent="Pm0zzvNBCTfCiv9d_ps6-53" vertex="1">
          <mxGeometry y="130" width="270" height="26" as="geometry" />
        </mxCell>
        <mxCell id="Pm0zzvNBCTfCiv9d_ps6-59" value="&lt;span style=&quot;color: rgb(0, 0, 0); font-family: Helvetica; font-size: 12px; font-style: normal; font-variant-ligatures: normal; font-variant-caps: normal; font-weight: 400; letter-spacing: normal; orphans: 2; text-align: left; text-indent: 0px; text-transform: none; widows: 2; word-spacing: 0px; -webkit-text-stroke-width: 0px; background-color: rgb(251, 251, 251); text-decoration-thickness: initial; text-decoration-style: initial; text-decoration-color: initial; float: none; display: inline !important;&quot;&gt;+ArrivalTime { get; set; }:&amp;nbsp;DateTime&lt;/span&gt;" style="text;whiteSpace=wrap;html=1;" parent="Pm0zzvNBCTfCiv9d_ps6-53" vertex="1">
          <mxGeometry y="156" width="270" height="24" as="geometry" />
        </mxCell>
        <mxCell id="Pm0zzvNBCTfCiv9d_ps6-60" value="+Price {get; set;}: decimal" style="text;align=left;verticalAlign=top;spacingLeft=4;spacingRight=4;overflow=hidden;rotatable=0;points=[[0,0.5],[1,0.5]];portConstraint=eastwest;" parent="Pm0zzvNBCTfCiv9d_ps6-53" vertex="1">
          <mxGeometry y="180" width="270" height="26" as="geometry" />
        </mxCell>
        <mxCell id="Pm0zzvNBCTfCiv9d_ps6-61" value="+Seat {get; set;}: Seats" style="text;align=left;verticalAlign=top;spacingLeft=4;spacingRight=4;overflow=hidden;rotatable=0;points=[[0,0.5],[1,0.5]];portConstraint=eastwest;" parent="Pm0zzvNBCTfCiv9d_ps6-53" vertex="1">
          <mxGeometry y="206" width="270" height="26" as="geometry" />
        </mxCell>
        <mxCell id="Pm0zzvNBCTfCiv9d_ps6-62" value="&lt;font style=&quot;font-size: 36px;&quot;&gt;Domain&lt;/font&gt;" style="text;html=1;strokeColor=#6c8ebf;fillColor=#dae8fc;align=center;verticalAlign=middle;whiteSpace=wrap;rounded=0;" parent="Pm0zzvNBCTfCiv9d_ps6-1" vertex="1">
          <mxGeometry x="150" y="20" width="620" height="80" as="geometry" />
        </mxCell>
        <mxCell id="Pm0zzvNBCTfCiv9d_ps6-63" value="&lt;font style=&quot;font-size: 36px;&quot;&gt;DAL&lt;/font&gt;" style="text;html=1;strokeColor=#6c8ebf;fillColor=#dae8fc;align=center;verticalAlign=middle;whiteSpace=wrap;rounded=0;" parent="Pm0zzvNBCTfCiv9d_ps6-1" vertex="1">
          <mxGeometry x="1870" y="-20" width="620" height="80" as="geometry" />
        </mxCell>
        <mxCell id="Pm0zzvNBCTfCiv9d_ps6-64" value="&lt;font style=&quot;font-size: 36px;&quot;&gt;BLL&lt;/font&gt;" style="text;html=1;strokeColor=#6c8ebf;fillColor=#dae8fc;align=center;verticalAlign=middle;whiteSpace=wrap;rounded=0;" parent="Pm0zzvNBCTfCiv9d_ps6-1" vertex="1">
          <mxGeometry x="3830" y="1180" width="620" height="80" as="geometry" />
        </mxCell>
        <mxCell id="Pm0zzvNBCTfCiv9d_ps6-65" value="*" style="text;html=1;strokeColor=none;fillColor=none;align=center;verticalAlign=middle;whiteSpace=wrap;rounded=0;fontSize=30;fontStyle=1" parent="Pm0zzvNBCTfCiv9d_ps6-1" vertex="1">
          <mxGeometry x="970" y="980" width="60" height="20" as="geometry" />
        </mxCell>
        <mxCell id="Pm0zzvNBCTfCiv9d_ps6-66" value="1" style="text;html=1;strokeColor=none;fillColor=none;align=center;verticalAlign=middle;whiteSpace=wrap;rounded=0;fontSize=15;fontStyle=1" parent="Pm0zzvNBCTfCiv9d_ps6-1" vertex="1">
          <mxGeometry x="1245" y="780" width="60" height="20" as="geometry" />
        </mxCell>
        <mxCell id="Pm0zzvNBCTfCiv9d_ps6-67" value="1" style="text;html=1;strokeColor=none;fillColor=none;align=center;verticalAlign=middle;whiteSpace=wrap;rounded=0;fontSize=15;fontStyle=1" parent="Pm0zzvNBCTfCiv9d_ps6-1" vertex="1">
          <mxGeometry x="760" y="830" width="60" height="20" as="geometry" />
        </mxCell>
        <mxCell id="Pm0zzvNBCTfCiv9d_ps6-68" value="1" style="text;html=1;strokeColor=none;fillColor=none;align=center;verticalAlign=middle;whiteSpace=wrap;rounded=0;fontSize=15;fontStyle=1" parent="Pm0zzvNBCTfCiv9d_ps6-1" vertex="1">
          <mxGeometry x="190" y="705" width="60" height="20" as="geometry" />
        </mxCell>
        <mxCell id="Pm0zzvNBCTfCiv9d_ps6-69" value="1" style="text;html=1;strokeColor=none;fillColor=none;align=center;verticalAlign=middle;whiteSpace=wrap;rounded=0;fontSize=15;fontStyle=1" parent="Pm0zzvNBCTfCiv9d_ps6-1" vertex="1">
          <mxGeometry x="725" y="220" width="60" height="20" as="geometry" />
        </mxCell>
        <mxCell id="Pm0zzvNBCTfCiv9d_ps6-70" value="*" style="text;html=1;strokeColor=none;fillColor=none;align=center;verticalAlign=middle;whiteSpace=wrap;rounded=0;fontSize=30;fontStyle=1" parent="Pm0zzvNBCTfCiv9d_ps6-1" vertex="1">
          <mxGeometry x="1310" y="300" width="60" height="20" as="geometry" />
        </mxCell>
        <mxCell id="Pm0zzvNBCTfCiv9d_ps6-71" value="1" style="text;html=1;strokeColor=none;fillColor=none;align=center;verticalAlign=middle;whiteSpace=wrap;rounded=0;fontSize=15;fontStyle=1" parent="Pm0zzvNBCTfCiv9d_ps6-1" vertex="1">
          <mxGeometry x="735" y="1210" width="60" height="20" as="geometry" />
        </mxCell>
        <mxCell id="Pm0zzvNBCTfCiv9d_ps6-72" value="1" style="text;html=1;strokeColor=none;fillColor=none;align=center;verticalAlign=middle;whiteSpace=wrap;rounded=0;fontSize=15;fontStyle=1" parent="Pm0zzvNBCTfCiv9d_ps6-1" vertex="1">
          <mxGeometry x="200" y="1130" width="60" height="20" as="geometry" />
        </mxCell>
        <mxCell id="Pm0zzvNBCTfCiv9d_ps6-79" value="UserRepo" style="swimlane;fontStyle=1;align=center;verticalAlign=top;childLayout=stackLayout;horizontal=1;startSize=26;horizontalStack=0;resizeParent=1;resizeParentMax=0;resizeLast=0;collapsible=1;marginBottom=0;" parent="Pm0zzvNBCTfCiv9d_ps6-1" vertex="1">
          <mxGeometry x="2650" y="160" width="279" height="176" as="geometry" />
        </mxCell>
        <mxCell id="Pm0zzvNBCTfCiv9d_ps6-80" value="+GetAllUsers(): List&lt;User&gt;" style="text;strokeColor=none;fillColor=none;align=left;verticalAlign=top;spacingLeft=4;spacingRight=4;overflow=hidden;rotatable=0;points=[[0,0.5],[1,0.5]];portConstraint=eastwest;" parent="Pm0zzvNBCTfCiv9d_ps6-79" vertex="1">
          <mxGeometry y="26" width="279" height="30" as="geometry" />
        </mxCell>
        <mxCell id="Pm0zzvNBCTfCiv9d_ps6-81" value="+GetUserById(int userId): User" style="text;strokeColor=none;fillColor=none;align=left;verticalAlign=top;spacingLeft=4;spacingRight=4;overflow=hidden;rotatable=0;points=[[0,0.5],[1,0.5]];portConstraint=eastwest;" parent="Pm0zzvNBCTfCiv9d_ps6-79" vertex="1">
          <mxGeometry y="56" width="279" height="30" as="geometry" />
        </mxCell>
        <mxCell id="Pm0zzvNBCTfCiv9d_ps6-82" value="+AddUser(User user):Â  void" style="text;strokeColor=none;fillColor=none;align=left;verticalAlign=top;spacingLeft=4;spacingRight=4;overflow=hidden;rotatable=0;points=[[0,0.5],[1,0.5]];portConstraint=eastwest;" parent="Pm0zzvNBCTfCiv9d_ps6-79" vertex="1">
          <mxGeometry y="86" width="279" height="30" as="geometry" />
        </mxCell>
        <mxCell id="Pm0zzvNBCTfCiv9d_ps6-83" value="+UpdateUser(User user): void" style="text;strokeColor=none;fillColor=none;align=left;verticalAlign=top;spacingLeft=4;spacingRight=4;overflow=hidden;rotatable=0;points=[[0,0.5],[1,0.5]];portConstraint=eastwest;" parent="Pm0zzvNBCTfCiv9d_ps6-79" vertex="1">
          <mxGeometry y="116" width="279" height="30" as="geometry" />
        </mxCell>
        <mxCell id="Pm0zzvNBCTfCiv9d_ps6-84" value="+DeleteUser(int userId): void" style="text;strokeColor=none;fillColor=none;align=left;verticalAlign=top;spacingLeft=4;spacingRight=4;overflow=hidden;rotatable=0;points=[[0,0.5],[1,0.5]];portConstraint=eastwest;" parent="Pm0zzvNBCTfCiv9d_ps6-79" vertex="1">
          <mxGeometry y="146" width="279" height="30" as="geometry" />
        </mxCell>
        <mxCell id="Pm0zzvNBCTfCiv9d_ps6-85" value="ReviewRepo" style="swimlane;fontStyle=1;align=center;verticalAlign=top;childLayout=stackLayout;horizontal=1;startSize=26;horizontalStack=0;resizeParent=1;resizeLast=0;collapsible=1;marginBottom=0;rounded=0;shadow=0;strokeWidth=1;" parent="Pm0zzvNBCTfCiv9d_ps6-1" vertex="1">
          <mxGeometry x="3400" y="520" width="320" height="146" as="geometry">
            <mxRectangle x="340" y="380" width="170" height="26" as="alternateBounds" />
          </mxGeometry>
        </mxCell>
        <mxCell id="Pm0zzvNBCTfCiv9d_ps6-86" value="+GetAllReviewsById(int hotelId): List&lt;Review&gt;" style="text;strokeColor=none;fillColor=none;align=left;verticalAlign=top;spacingLeft=4;spacingRight=4;overflow=hidden;rotatable=0;points=[[0,0.5],[1,0.5]];portConstraint=eastwest;" parent="Pm0zzvNBCTfCiv9d_ps6-85" vertex="1">
          <mxGeometry y="26" width="320" height="30" as="geometry" />
        </mxCell>
        <mxCell id="Pm0zzvNBCTfCiv9d_ps6-87" value="+AddReview(int userId, int hotelId):Â  void" style="text;strokeColor=none;fillColor=none;align=left;verticalAlign=top;spacingLeft=4;spacingRight=4;overflow=hidden;rotatable=0;points=[[0,0.5],[1,0.5]];portConstraint=eastwest;" parent="Pm0zzvNBCTfCiv9d_ps6-85" vertex="1">
          <mxGeometry y="56" width="320" height="30" as="geometry" />
        </mxCell>
        <mxCell id="Pm0zzvNBCTfCiv9d_ps6-88" value="+DeleteReview(int userId): void" style="text;strokeColor=none;fillColor=none;align=left;verticalAlign=top;spacingLeft=4;spacingRight=4;overflow=hidden;rotatable=0;points=[[0,0.5],[1,0.5]];portConstraint=eastwest;" parent="Pm0zzvNBCTfCiv9d_ps6-85" vertex="1">
          <mxGeometry y="86" width="320" height="30" as="geometry" />
        </mxCell>
        <mxCell id="Vf6vNnHTQZUbYHwXiiwt-9" style="edgeStyle=orthogonalEdgeStyle;rounded=0;orthogonalLoop=1;jettySize=auto;html=1;" parent="Pm0zzvNBCTfCiv9d_ps6-1" source="Pm0zzvNBCTfCiv9d_ps6-89" target="Pm0zzvNBCTfCiv9d_ps6-113" edge="1">
          <mxGeometry relative="1" as="geometry">
            <mxPoint x="1985.0526315789475" y="1110" as="targetPoint" />
          </mxGeometry>
        </mxCell>
        <mxCell id="Pm0zzvNBCTfCiv9d_ps6-89" value="HotelBookingRepo" style="swimlane;fontStyle=1;align=center;verticalAlign=top;childLayout=stackLayout;horizontal=1;startSize=26;horizontalStack=0;resizeParent=1;resizeLast=0;collapsible=1;marginBottom=0;rounded=0;shadow=0;strokeWidth=1;" parent="Pm0zzvNBCTfCiv9d_ps6-1" vertex="1">
          <mxGeometry x="1900" y="153" width="310" height="195" as="geometry">
            <mxRectangle x="340" y="380" width="170" height="26" as="alternateBounds" />
          </mxGeometry>
        </mxCell>
        <mxCell id="Pm0zzvNBCTfCiv9d_ps6-90" value="+GetAllHotelBookings(): List&lt;HotelBooking&gt;" style="text;strokeColor=none;fillColor=none;align=left;verticalAlign=top;spacingLeft=4;spacingRight=4;overflow=hidden;rotatable=0;points=[[0,0.5],[1,0.5]];portConstraint=eastwest;" parent="Pm0zzvNBCTfCiv9d_ps6-89" vertex="1">
          <mxGeometry y="26" width="310" height="30" as="geometry" />
        </mxCell>
        <mxCell id="Pm0zzvNBCTfCiv9d_ps6-91" value="+GetHotelBookingById(int bookingId): HotelBooking" style="text;strokeColor=none;fillColor=none;align=left;verticalAlign=top;spacingLeft=4;spacingRight=4;overflow=hidden;rotatable=0;points=[[0,0.5],[1,0.5]];portConstraint=eastwest;" parent="Pm0zzvNBCTfCiv9d_ps6-89" vertex="1">
          <mxGeometry y="56" width="310" height="30" as="geometry" />
        </mxCell>
        <mxCell id="Pm0zzvNBCTfCiv9d_ps6-92" value="+AddHotelBooking(HotelBooking booking):Â  void" style="text;strokeColor=none;fillColor=none;align=left;verticalAlign=top;spacingLeft=4;spacingRight=4;overflow=hidden;rotatable=0;points=[[0,0.5],[1,0.5]];portConstraint=eastwest;" parent="Pm0zzvNBCTfCiv9d_ps6-89" vertex="1">
          <mxGeometry y="86" width="310" height="30" as="geometry" />
        </mxCell>
        <mxCell id="Pm0zzvNBCTfCiv9d_ps6-93" value="+UpdateHotelBooking(HotelBooking booking): void" style="text;strokeColor=none;fillColor=none;align=left;verticalAlign=top;spacingLeft=4;spacingRight=4;overflow=hidden;rotatable=0;points=[[0,0.5],[1,0.5]];portConstraint=eastwest;" parent="Pm0zzvNBCTfCiv9d_ps6-89" vertex="1">
          <mxGeometry y="116" width="310" height="30" as="geometry" />
        </mxCell>
        <mxCell id="Pm0zzvNBCTfCiv9d_ps6-94" value="+DeleteHotelBooking(int bookingId): void" style="text;strokeColor=none;fillColor=none;align=left;verticalAlign=top;spacingLeft=4;spacingRight=4;overflow=hidden;rotatable=0;points=[[0,0.5],[1,0.5]];portConstraint=eastwest;" parent="Pm0zzvNBCTfCiv9d_ps6-89" vertex="1">
          <mxGeometry y="146" width="310" height="30" as="geometry" />
        </mxCell>
        <mxCell id="mBN9E9gBYDlc1gW3XMUm-1" style="edgeStyle=orthogonalEdgeStyle;rounded=0;orthogonalLoop=1;jettySize=auto;html=1;" edge="1" parent="Pm0zzvNBCTfCiv9d_ps6-1" source="Pm0zzvNBCTfCiv9d_ps6-95" target="Pm0zzvNBCTfCiv9d_ps6-113">
          <mxGeometry relative="1" as="geometry">
            <Array as="points">
              <mxPoint x="1630" y="660" />
              <mxPoint x="1750" y="660" />
            </Array>
          </mxGeometry>
        </mxCell>
        <mxCell id="Pm0zzvNBCTfCiv9d_ps6-95" value="FlightBookingRepo" style="swimlane;fontStyle=1;align=center;verticalAlign=top;childLayout=stackLayout;horizontal=1;startSize=26;horizontalStack=0;resizeParent=1;resizeLast=0;collapsible=1;marginBottom=0;rounded=0;shadow=0;strokeWidth=1;" parent="Pm0zzvNBCTfCiv9d_ps6-1" vertex="1">
          <mxGeometry x="1510" y="142" width="300" height="200" as="geometry">
            <mxRectangle x="130" y="380" width="160" height="26" as="alternateBounds" />
          </mxGeometry>
        </mxCell>
        <mxCell id="Pm0zzvNBCTfCiv9d_ps6-96" value="+GetAllFlightBookings(): List&lt;FlightBooking&gt;" style="text;strokeColor=none;fillColor=none;align=left;verticalAlign=top;spacingLeft=4;spacingRight=4;overflow=hidden;rotatable=0;points=[[0,0.5],[1,0.5]];portConstraint=eastwest;" parent="Pm0zzvNBCTfCiv9d_ps6-95" vertex="1">
          <mxGeometry y="26" width="300" height="30" as="geometry" />
        </mxCell>
        <mxCell id="Pm0zzvNBCTfCiv9d_ps6-97" value="+GetFlightBookingById(int bookingId): FlightBooking" style="text;strokeColor=none;fillColor=none;align=left;verticalAlign=top;spacingLeft=4;spacingRight=4;overflow=hidden;rotatable=0;points=[[0,0.5],[1,0.5]];portConstraint=eastwest;" parent="Pm0zzvNBCTfCiv9d_ps6-95" vertex="1">
          <mxGeometry y="56" width="300" height="30" as="geometry" />
        </mxCell>
        <mxCell id="Pm0zzvNBCTfCiv9d_ps6-98" value="+AddFlightBooking(FlightBooking booking):Â  void" style="text;strokeColor=none;fillColor=none;align=left;verticalAlign=top;spacingLeft=4;spacingRight=4;overflow=hidden;rotatable=0;points=[[0,0.5],[1,0.5]];portConstraint=eastwest;" parent="Pm0zzvNBCTfCiv9d_ps6-95" vertex="1">
          <mxGeometry y="86" width="300" height="30" as="geometry" />
        </mxCell>
        <mxCell id="Pm0zzvNBCTfCiv9d_ps6-99" value="+UpdateFlightBooking(FlightBooking booking): void" style="text;strokeColor=none;fillColor=none;align=left;verticalAlign=top;spacingLeft=4;spacingRight=4;overflow=hidden;rotatable=0;points=[[0,0.5],[1,0.5]];portConstraint=eastwest;" parent="Pm0zzvNBCTfCiv9d_ps6-95" vertex="1">
          <mxGeometry y="116" width="300" height="30" as="geometry" />
        </mxCell>
        <mxCell id="Pm0zzvNBCTfCiv9d_ps6-100" value="+DeleteFlightBooking(int bookingId): void" style="text;strokeColor=none;fillColor=none;align=left;verticalAlign=top;spacingLeft=4;spacingRight=4;overflow=hidden;rotatable=0;points=[[0,0.5],[1,0.5]];portConstraint=eastwest;" parent="Pm0zzvNBCTfCiv9d_ps6-95" vertex="1">
          <mxGeometry y="146" width="300" height="30" as="geometry" />
        </mxCell>
        <mxCell id="Pm0zzvNBCTfCiv9d_ps6-101" value="FlightRepo" style="swimlane;fontStyle=1;align=center;verticalAlign=top;childLayout=stackLayout;horizontal=1;startSize=26;horizontalStack=0;resizeParent=1;resizeLast=0;collapsible=1;marginBottom=0;rounded=0;shadow=0;strokeWidth=1;" parent="Pm0zzvNBCTfCiv9d_ps6-1" vertex="1">
          <mxGeometry x="3010" y="148" width="300" height="200" as="geometry">
            <mxRectangle x="130" y="380" width="160" height="26" as="alternateBounds" />
          </mxGeometry>
        </mxCell>
        <mxCell id="Pm0zzvNBCTfCiv9d_ps6-102" value="+GetAllFlights(): List&lt;Flight&gt;" style="text;strokeColor=none;fillColor=none;align=left;verticalAlign=top;spacingLeft=4;spacingRight=4;overflow=hidden;rotatable=0;points=[[0,0.5],[1,0.5]];portConstraint=eastwest;" parent="Pm0zzvNBCTfCiv9d_ps6-101" vertex="1">
          <mxGeometry y="26" width="300" height="30" as="geometry" />
        </mxCell>
        <mxCell id="Pm0zzvNBCTfCiv9d_ps6-103" value="+GetFlightById(int flightId): Flight" style="text;strokeColor=none;fillColor=none;align=left;verticalAlign=top;spacingLeft=4;spacingRight=4;overflow=hidden;rotatable=0;points=[[0,0.5],[1,0.5]];portConstraint=eastwest;" parent="Pm0zzvNBCTfCiv9d_ps6-101" vertex="1">
          <mxGeometry y="56" width="300" height="30" as="geometry" />
        </mxCell>
        <mxCell id="Pm0zzvNBCTfCiv9d_ps6-104" value="+AddFlight(Flight flight):Â  void" style="text;strokeColor=none;fillColor=none;align=left;verticalAlign=top;spacingLeft=4;spacingRight=4;overflow=hidden;rotatable=0;points=[[0,0.5],[1,0.5]];portConstraint=eastwest;" parent="Pm0zzvNBCTfCiv9d_ps6-101" vertex="1">
          <mxGeometry y="86" width="300" height="30" as="geometry" />
        </mxCell>
        <mxCell id="Pm0zzvNBCTfCiv9d_ps6-105" value="+UpdateFlight(Flight flight): void" style="text;strokeColor=none;fillColor=none;align=left;verticalAlign=top;spacingLeft=4;spacingRight=4;overflow=hidden;rotatable=0;points=[[0,0.5],[1,0.5]];portConstraint=eastwest;" parent="Pm0zzvNBCTfCiv9d_ps6-101" vertex="1">
          <mxGeometry y="116" width="300" height="30" as="geometry" />
        </mxCell>
        <mxCell id="Pm0zzvNBCTfCiv9d_ps6-106" value="+DeleteFlight(int flightId): void" style="text;strokeColor=none;fillColor=none;align=left;verticalAlign=top;spacingLeft=4;spacingRight=4;overflow=hidden;rotatable=0;points=[[0,0.5],[1,0.5]];portConstraint=eastwest;" parent="Pm0zzvNBCTfCiv9d_ps6-101" vertex="1">
          <mxGeometry y="146" width="300" height="30" as="geometry" />
        </mxCell>
        <mxCell id="mBN9E9gBYDlc1gW3XMUm-2" style="edgeStyle=orthogonalEdgeStyle;rounded=0;orthogonalLoop=1;jettySize=auto;html=1;" edge="1" parent="Pm0zzvNBCTfCiv9d_ps6-1" source="Pm0zzvNBCTfCiv9d_ps6-107" target="Pm0zzvNBCTfCiv9d_ps6-145">
          <mxGeometry relative="1" as="geometry" />
        </mxCell>
        <mxCell id="Pm0zzvNBCTfCiv9d_ps6-107" value="HotelRepo" style="swimlane;fontStyle=1;align=center;verticalAlign=top;childLayout=stackLayout;horizontal=1;startSize=26;horizontalStack=0;resizeParent=1;resizeLast=0;collapsible=1;marginBottom=0;rounded=0;shadow=0;strokeWidth=1;" parent="Pm0zzvNBCTfCiv9d_ps6-1" vertex="1">
          <mxGeometry x="2300" y="192" width="310" height="190" as="geometry">
            <mxRectangle x="340" y="380" width="170" height="26" as="alternateBounds" />
          </mxGeometry>
        </mxCell>
        <mxCell id="Pm0zzvNBCTfCiv9d_ps6-108" value="+GetAllHotels(): List&lt;Hotel&gt;" style="text;strokeColor=none;fillColor=none;align=left;verticalAlign=top;spacingLeft=4;spacingRight=4;overflow=hidden;rotatable=0;points=[[0,0.5],[1,0.5]];portConstraint=eastwest;" parent="Pm0zzvNBCTfCiv9d_ps6-107" vertex="1">
          <mxGeometry y="26" width="310" height="30" as="geometry" />
        </mxCell>
        <mxCell id="Pm0zzvNBCTfCiv9d_ps6-109" value="+GetHotelById(int hotelId): Hotel" style="text;strokeColor=none;fillColor=none;align=left;verticalAlign=top;spacingLeft=4;spacingRight=4;overflow=hidden;rotatable=0;points=[[0,0.5],[1,0.5]];portConstraint=eastwest;" parent="Pm0zzvNBCTfCiv9d_ps6-107" vertex="1">
          <mxGeometry y="56" width="310" height="30" as="geometry" />
        </mxCell>
        <mxCell id="Pm0zzvNBCTfCiv9d_ps6-110" value="+AddHotel(Hotel hotel):Â  void" style="text;strokeColor=none;fillColor=none;align=left;verticalAlign=top;spacingLeft=4;spacingRight=4;overflow=hidden;rotatable=0;points=[[0,0.5],[1,0.5]];portConstraint=eastwest;" parent="Pm0zzvNBCTfCiv9d_ps6-107" vertex="1">
          <mxGeometry y="86" width="310" height="30" as="geometry" />
        </mxCell>
        <mxCell id="Pm0zzvNBCTfCiv9d_ps6-111" value="+UpdateHotel(Hotel hotel): void" style="text;strokeColor=none;fillColor=none;align=left;verticalAlign=top;spacingLeft=4;spacingRight=4;overflow=hidden;rotatable=0;points=[[0,0.5],[1,0.5]];portConstraint=eastwest;" parent="Pm0zzvNBCTfCiv9d_ps6-107" vertex="1">
          <mxGeometry y="116" width="310" height="30" as="geometry" />
        </mxCell>
        <mxCell id="Pm0zzvNBCTfCiv9d_ps6-112" value="+DeleteHotel(int hotelId): void" style="text;strokeColor=none;fillColor=none;align=left;verticalAlign=top;spacingLeft=4;spacingRight=4;overflow=hidden;rotatable=0;points=[[0,0.5],[1,0.5]];portConstraint=eastwest;" parent="Pm0zzvNBCTfCiv9d_ps6-107" vertex="1">
          <mxGeometry y="146" width="310" height="30" as="geometry" />
        </mxCell>
        <mxCell id="Pm0zzvNBCTfCiv9d_ps6-113" value="BookingLogic" style="swimlane;fontStyle=3;align=center;verticalAlign=top;childLayout=stackLayout;horizontal=1;startSize=26;horizontalStack=0;resizeParent=1;resizeLast=0;collapsible=1;marginBottom=0;rounded=0;shadow=0;strokeWidth=1;" parent="Pm0zzvNBCTfCiv9d_ps6-1" vertex="1">
          <mxGeometry x="1830" y="644" width="280" height="206" as="geometry">
            <mxRectangle x="230" y="140" width="160" height="26" as="alternateBounds" />
          </mxGeometry>
        </mxCell>
        <mxCell id="Pm0zzvNBCTfCiv9d_ps6-114" value="+GetAllBookings(): List&lt;Booking&gt;" style="text;strokeColor=none;fillColor=none;align=left;verticalAlign=top;spacingLeft=4;spacingRight=4;overflow=hidden;rotatable=0;points=[[0,0.5],[1,0.5]];portConstraint=eastwest;" parent="Pm0zzvNBCTfCiv9d_ps6-113" vertex="1">
          <mxGeometry y="26" width="280" height="30" as="geometry" />
        </mxCell>
        <mxCell id="Pm0zzvNBCTfCiv9d_ps6-115" value="+GetBookingById(int bookingId): Booking" style="text;strokeColor=none;fillColor=none;align=left;verticalAlign=top;spacingLeft=4;spacingRight=4;overflow=hidden;rotatable=0;points=[[0,0.5],[1,0.5]];portConstraint=eastwest;" parent="Pm0zzvNBCTfCiv9d_ps6-113" vertex="1">
          <mxGeometry y="56" width="280" height="30" as="geometry" />
        </mxCell>
        <mxCell id="Pm0zzvNBCTfCiv9d_ps6-116" value="+CreateBooking(Booking booking):Â  void" style="text;strokeColor=none;fillColor=none;align=left;verticalAlign=top;spacingLeft=4;spacingRight=4;overflow=hidden;rotatable=0;points=[[0,0.5],[1,0.5]];portConstraint=eastwest;" parent="Pm0zzvNBCTfCiv9d_ps6-113" vertex="1">
          <mxGeometry y="86" width="280" height="30" as="geometry" />
        </mxCell>
        <mxCell id="Pm0zzvNBCTfCiv9d_ps6-117" value="+CancellBooking(int bookingId): void" style="text;strokeColor=none;fillColor=none;align=left;verticalAlign=top;spacingLeft=4;spacingRight=4;overflow=hidden;rotatable=0;points=[[0,0.5],[1,0.5]];portConstraint=eastwest;" parent="Pm0zzvNBCTfCiv9d_ps6-113" vertex="1">
          <mxGeometry y="116" width="280" height="30" as="geometry" />
        </mxCell>
        <mxCell id="Pm0zzvNBCTfCiv9d_ps6-118" value="+CalculateTotalPrice(): decimal" style="text;strokeColor=none;fillColor=none;align=left;verticalAlign=top;spacingLeft=4;spacingRight=4;overflow=hidden;rotatable=0;points=[[0,0.5],[1,0.5]];portConstraint=eastwest;" parent="Pm0zzvNBCTfCiv9d_ps6-113" vertex="1">
          <mxGeometry y="146" width="280" height="30" as="geometry" />
        </mxCell>
        <mxCell id="Vf6vNnHTQZUbYHwXiiwt-5" style="edgeStyle=orthogonalEdgeStyle;rounded=0;orthogonalLoop=1;jettySize=auto;html=1;" parent="Pm0zzvNBCTfCiv9d_ps6-1" source="Pm0zzvNBCTfCiv9d_ps6-119" target="Pm0zzvNBCTfCiv9d_ps6-79" edge="1">
          <mxGeometry relative="1" as="geometry">
            <Array as="points">
              <mxPoint x="2790" y="527" />
              <mxPoint x="2780" y="527" />
            </Array>
          </mxGeometry>
        </mxCell>
        <mxCell id="Pm0zzvNBCTfCiv9d_ps6-119" value="UserLogic" style="swimlane;fontStyle=1;align=center;verticalAlign=top;childLayout=stackLayout;horizontal=1;startSize=26;horizontalStack=0;resizeParent=1;resizeParentMax=0;resizeLast=0;collapsible=1;marginBottom=0;" parent="Pm0zzvNBCTfCiv9d_ps6-1" vertex="1">
          <mxGeometry x="2690" y="719" width="279" height="206" as="geometry" />
        </mxCell>
        <mxCell id="Pm0zzvNBCTfCiv9d_ps6-120" value="+GetAllUsers(): List&lt;User&gt;" style="text;strokeColor=none;fillColor=none;align=left;verticalAlign=top;spacingLeft=4;spacingRight=4;overflow=hidden;rotatable=0;points=[[0,0.5],[1,0.5]];portConstraint=eastwest;" parent="Pm0zzvNBCTfCiv9d_ps6-119" vertex="1">
          <mxGeometry y="26" width="279" height="30" as="geometry" />
        </mxCell>
        <mxCell id="Pm0zzvNBCTfCiv9d_ps6-121" value="+GetUserById(int userId): User" style="text;strokeColor=none;fillColor=none;align=left;verticalAlign=top;spacingLeft=4;spacingRight=4;overflow=hidden;rotatable=0;points=[[0,0.5],[1,0.5]];portConstraint=eastwest;" parent="Pm0zzvNBCTfCiv9d_ps6-119" vertex="1">
          <mxGeometry y="56" width="279" height="30" as="geometry" />
        </mxCell>
        <mxCell id="Pm0zzvNBCTfCiv9d_ps6-122" value="+RegisterUser(User user)" style="text;strokeColor=none;fillColor=none;align=left;verticalAlign=top;spacingLeft=4;spacingRight=4;overflow=hidden;rotatable=0;points=[[0,0.5],[1,0.5]];portConstraint=eastwest;" parent="Pm0zzvNBCTfCiv9d_ps6-119" vertex="1">
          <mxGeometry y="86" width="279" height="30" as="geometry" />
        </mxCell>
        <mxCell id="Pm0zzvNBCTfCiv9d_ps6-123" value="+UpdateInformation(User user): void" style="text;strokeColor=none;fillColor=none;align=left;verticalAlign=top;spacingLeft=4;spacingRight=4;overflow=hidden;rotatable=0;points=[[0,0.5],[1,0.5]];portConstraint=eastwest;" parent="Pm0zzvNBCTfCiv9d_ps6-119" vertex="1">
          <mxGeometry y="116" width="279" height="30" as="geometry" />
        </mxCell>
        <mxCell id="Pm0zzvNBCTfCiv9d_ps6-124" value="+AddReview(int userId, int hotelId):Â  void" style="text;strokeColor=none;fillColor=none;align=left;verticalAlign=top;spacingLeft=4;spacingRight=4;overflow=hidden;rotatable=0;points=[[0,0.5],[1,0.5]];portConstraint=eastwest;" parent="Pm0zzvNBCTfCiv9d_ps6-119" vertex="1">
          <mxGeometry y="146" width="279" height="30" as="geometry" />
        </mxCell>
        <mxCell id="Pm0zzvNBCTfCiv9d_ps6-125" value="+DeleteReview(int userId): void" style="text;strokeColor=none;fillColor=none;align=left;verticalAlign=top;spacingLeft=4;spacingRight=4;overflow=hidden;rotatable=0;points=[[0,0.5],[1,0.5]];portConstraint=eastwest;" parent="Pm0zzvNBCTfCiv9d_ps6-119" vertex="1">
          <mxGeometry y="176" width="279" height="30" as="geometry" />
        </mxCell>
        <mxCell id="Vf6vNnHTQZUbYHwXiiwt-12" style="edgeStyle=orthogonalEdgeStyle;rounded=0;orthogonalLoop=1;jettySize=auto;html=1;" parent="Pm0zzvNBCTfCiv9d_ps6-1" source="Pm0zzvNBCTfCiv9d_ps6-139" target="Pm0zzvNBCTfCiv9d_ps6-101" edge="1">
          <mxGeometry relative="1" as="geometry">
            <Array as="points">
              <mxPoint x="3190" y="532" />
              <mxPoint x="3190" y="532" />
            </Array>
          </mxGeometry>
        </mxCell>
        <mxCell id="Pm0zzvNBCTfCiv9d_ps6-139" value="FlightLogic" style="swimlane;fontStyle=1;align=center;verticalAlign=top;childLayout=stackLayout;horizontal=1;startSize=26;horizontalStack=0;resizeParent=1;resizeLast=0;collapsible=1;marginBottom=0;rounded=0;shadow=0;strokeWidth=1;" parent="Pm0zzvNBCTfCiv9d_ps6-1" vertex="1">
          <mxGeometry x="3080" y="716" width="300" height="206" as="geometry">
            <mxRectangle x="130" y="380" width="160" height="26" as="alternateBounds" />
          </mxGeometry>
        </mxCell>
        <mxCell id="Pm0zzvNBCTfCiv9d_ps6-140" value="+GetAllFlights(): List&lt;Flight&gt;" style="text;strokeColor=none;fillColor=none;align=left;verticalAlign=top;spacingLeft=4;spacingRight=4;overflow=hidden;rotatable=0;points=[[0,0.5],[1,0.5]];portConstraint=eastwest;" parent="Pm0zzvNBCTfCiv9d_ps6-139" vertex="1">
          <mxGeometry y="26" width="300" height="30" as="geometry" />
        </mxCell>
        <mxCell id="Pm0zzvNBCTfCiv9d_ps6-141" value="+GetFlightById(int flightId): Flight" style="text;strokeColor=none;fillColor=none;align=left;verticalAlign=top;spacingLeft=4;spacingRight=4;overflow=hidden;rotatable=0;points=[[0,0.5],[1,0.5]];portConstraint=eastwest;" parent="Pm0zzvNBCTfCiv9d_ps6-139" vertex="1">
          <mxGeometry y="56" width="300" height="30" as="geometry" />
        </mxCell>
        <mxCell id="Pm0zzvNBCTfCiv9d_ps6-142" value="+AddFlight(Flight flight):Â  void" style="text;strokeColor=none;fillColor=none;align=left;verticalAlign=top;spacingLeft=4;spacingRight=4;overflow=hidden;rotatable=0;points=[[0,0.5],[1,0.5]];portConstraint=eastwest;" parent="Pm0zzvNBCTfCiv9d_ps6-139" vertex="1">
          <mxGeometry y="86" width="300" height="30" as="geometry" />
        </mxCell>
        <mxCell id="Pm0zzvNBCTfCiv9d_ps6-143" value="+UpdateFlight(Flight flight): void" style="text;strokeColor=none;fillColor=none;align=left;verticalAlign=top;spacingLeft=4;spacingRight=4;overflow=hidden;rotatable=0;points=[[0,0.5],[1,0.5]];portConstraint=eastwest;" parent="Pm0zzvNBCTfCiv9d_ps6-139" vertex="1">
          <mxGeometry y="116" width="300" height="30" as="geometry" />
        </mxCell>
        <mxCell id="Pm0zzvNBCTfCiv9d_ps6-144" value="+DeleteFlight(int flightId): void" style="text;strokeColor=none;fillColor=none;align=left;verticalAlign=top;spacingLeft=4;spacingRight=4;overflow=hidden;rotatable=0;points=[[0,0.5],[1,0.5]];portConstraint=eastwest;" parent="Pm0zzvNBCTfCiv9d_ps6-139" vertex="1">
          <mxGeometry y="146" width="300" height="30" as="geometry" />
        </mxCell>
        <mxCell id="Pm0zzvNBCTfCiv9d_ps6-145" value="HotelLogic" style="swimlane;fontStyle=1;align=center;verticalAlign=top;childLayout=stackLayout;horizontal=1;startSize=26;horizontalStack=0;resizeParent=1;resizeLast=0;collapsible=1;marginBottom=0;rounded=0;shadow=0;strokeWidth=1;" parent="Pm0zzvNBCTfCiv9d_ps6-1" vertex="1">
          <mxGeometry x="2260" y="689" width="310" height="236" as="geometry">
            <mxRectangle x="340" y="380" width="170" height="26" as="alternateBounds" />
          </mxGeometry>
        </mxCell>
        <mxCell id="Pm0zzvNBCTfCiv9d_ps6-146" value="+GetAllHotels(): List&lt;Hotel&gt;" style="text;strokeColor=none;fillColor=none;align=left;verticalAlign=top;spacingLeft=4;spacingRight=4;overflow=hidden;rotatable=0;points=[[0,0.5],[1,0.5]];portConstraint=eastwest;" parent="Pm0zzvNBCTfCiv9d_ps6-145" vertex="1">
          <mxGeometry y="26" width="310" height="30" as="geometry" />
        </mxCell>
        <mxCell id="Pm0zzvNBCTfCiv9d_ps6-147" value="+GetHotelById(int hotelId): Hotel" style="text;strokeColor=none;fillColor=none;align=left;verticalAlign=top;spacingLeft=4;spacingRight=4;overflow=hidden;rotatable=0;points=[[0,0.5],[1,0.5]];portConstraint=eastwest;" parent="Pm0zzvNBCTfCiv9d_ps6-145" vertex="1">
          <mxGeometry y="56" width="310" height="30" as="geometry" />
        </mxCell>
        <mxCell id="Pm0zzvNBCTfCiv9d_ps6-148" value="+AddHotel(Hotel hotel):Â  void" style="text;strokeColor=none;fillColor=none;align=left;verticalAlign=top;spacingLeft=4;spacingRight=4;overflow=hidden;rotatable=0;points=[[0,0.5],[1,0.5]];portConstraint=eastwest;" parent="Pm0zzvNBCTfCiv9d_ps6-145" vertex="1">
          <mxGeometry y="86" width="310" height="30" as="geometry" />
        </mxCell>
        <mxCell id="Pm0zzvNBCTfCiv9d_ps6-149" value="+UpdateHotel(Hotel hotel): void" style="text;strokeColor=none;fillColor=none;align=left;verticalAlign=top;spacingLeft=4;spacingRight=4;overflow=hidden;rotatable=0;points=[[0,0.5],[1,0.5]];portConstraint=eastwest;" parent="Pm0zzvNBCTfCiv9d_ps6-145" vertex="1">
          <mxGeometry y="116" width="310" height="30" as="geometry" />
        </mxCell>
        <mxCell id="Pm0zzvNBCTfCiv9d_ps6-150" value="+DeleteHotel(int hotelId): void" style="text;strokeColor=none;fillColor=none;align=left;verticalAlign=top;spacingLeft=4;spacingRight=4;overflow=hidden;rotatable=0;points=[[0,0.5],[1,0.5]];portConstraint=eastwest;" parent="Pm0zzvNBCTfCiv9d_ps6-145" vertex="1">
          <mxGeometry y="146" width="310" height="30" as="geometry" />
        </mxCell>
        <mxCell id="Pm0zzvNBCTfCiv9d_ps6-151" value="+GetAllReviewsById(int hotelId): List&lt;Review&gt;" style="text;strokeColor=none;fillColor=none;align=left;verticalAlign=top;spacingLeft=4;spacingRight=4;overflow=hidden;rotatable=0;points=[[0,0.5],[1,0.5]];portConstraint=eastwest;" parent="Pm0zzvNBCTfCiv9d_ps6-145" vertex="1">
          <mxGeometry y="176" width="310" height="30" as="geometry" />
        </mxCell>
        <mxCell id="Pm0zzvNBCTfCiv9d_ps6-152" value="+CalculateAverageRating(int hotelId): List&lt;Review&gt;" style="text;strokeColor=none;fillColor=none;align=left;verticalAlign=top;spacingLeft=4;spacingRight=4;overflow=hidden;rotatable=0;points=[[0,0.5],[1,0.5]];portConstraint=eastwest;" parent="Pm0zzvNBCTfCiv9d_ps6-145" vertex="1">
          <mxGeometry y="206" width="310" height="30" as="geometry" />
        </mxCell>
        <mxCell id="Vf6vNnHTQZUbYHwXiiwt-3" value="*" style="text;html=1;strokeColor=none;fillColor=none;align=center;verticalAlign=middle;whiteSpace=wrap;rounded=0;fontSize=30;fontStyle=1" parent="Pm0zzvNBCTfCiv9d_ps6-1" vertex="1">
          <mxGeometry x="1070" y="685" width="60" height="20" as="geometry" />
        </mxCell>
      </root>
    </mxGraphModel>
  </diagram>
</mxfile>
